<?xml version="1.0" encoding="iso-8859-1"?>
<!-- Generator: Adobe Illustrator 19.2.0, SVG Export Plug-In . SVG Version: 6.00 Build 0)  -->
<svg version="1.1" id="Layer_1" xmlns="http://www.w3.org/2000/svg" xmlns:xlink="http://www.w3.org/1999/xlink" x="0px" y="0px"
	 viewBox="0 0 49 32" style="enable-background:new 0 0 49 32;" xml:space="preserve">
<g>
	<rect style="fill:#E21D38;" width="12.25" height="32"/>
	<rect x="12.25" style="fill:#FFFFFF;" width="24.5" height="32"/>
	<rect x="36.75" style="fill:#E21D38;" width="12.25" height="32"/>
	<path style="fill:#E21D38;" d="M24.5,26.806h0.387l-0.123-5.047l0.359-0.301c1.613,0.189,3.062,0.359,4.68,0.55l-0.412-1.379
		c-0.066-0.241,0.029-0.507,0.213-0.655l4.693-3.902l-0.973-0.469c-0.426-0.157-0.307-0.401-0.152-0.994l0.713-2.667l-2.725,0.587
		c-0.266,0.041-0.443-0.133-0.482-0.297l-0.352-1.255l-2.156,2.472c-0.307,0.396-0.926,0.396-0.734-0.52l0.924-5.006l-1.236,0.656
		c-0.348,0.197-0.693,0.229-0.889-0.124L24.5,5.197l-1.734,3.258c-0.193,0.353-0.541,0.321-0.887,0.124l-1.234-0.656l0.92,5.006
		c0.191,0.916-0.43,0.916-0.734,0.52l-2.156-2.472l-0.352,1.255c-0.041,0.164-0.215,0.337-0.482,0.297l-2.727-0.587l0.717,2.667
		c0.154,0.592,0.273,0.837-0.154,0.994l-0.973,0.469l4.693,3.902c0.186,0.148,0.281,0.414,0.215,0.655l-0.412,1.379
		c1.615-0.191,3.063-0.361,4.68-0.55l0.357,0.301l-0.123,5.047H24.5z"/>
</g>
</svg>
