<?xml version="1.0" encoding="iso-8859-1"?>
<!-- Generator: Adobe Illustrator 19.2.0, SVG Export Plug-In . SVG Version: 6.00 Build 0)  -->
<svg version="1.1" id="Layer_1" xmlns="http://www.w3.org/2000/svg" xmlns:xlink="http://www.w3.org/1999/xlink" x="0px" y="0px"
	 viewBox="0 0 66.34 46.309" style="enable-background:new 0 0 66.34 46.309;" xml:space="preserve">
<rect x="9.739" y="7.64" style="fill:#FFFFFF;" width="48.899" height="31.902"/>
<path style="fill:#EC8123;" d="M45.5,14.112c0.598,0.013,1.125-0.305,1.628-0.577l-0.218,0.598l-0.555,0.143
	c-0.265,0.17-0.55,0.313-0.801,0.503c-0.215,0.164-0.191,0.533-0.486,0.612c-0.402,0.108-0.659,0.443-0.91,0.748
	c-0.353,0.069-0.652,0.273-0.987,0.408c-0.255,0.102-0.443,0.313-0.651,0.491c-0.209,0.182-0.438,0.36-0.528,0.632l-0.229,0.409
	c-0.217,0.129-0.473,0.041-0.702,0.047c-0.271,0.061-0.597,0.218-0.591,0.531c-0.361,0.279-0.361,0.774-0.313,1.176
	c0.076,0.389,0.383,0.667,0.646,0.932l0.242,0.449c0.161,0.203,0.46,0.278,0.563,0.531l0.327,0.42l0.076,0.462
	c-0.341-0.216-0.75-0.299-1.146-0.339l-0.626,0.129c0.063,0.245-0.181,0.456-0.423,0.374c-0.259-0.136-0.466-0.389-0.773-0.409
	c-0.472-0.04-1.049-0.08-1.377,0.328c-0.235,0.346-0.139,0.788-0.174,1.183l-0.353,0.51l-0.529-0.025l-0.48,0.425
	c-0.345,0.055-0.708,0.159-0.957,0.416l-0.467,0.216l-0.354,0.163l-0.528-0.019c-0.152,0.251-0.493,0.265-0.749,0.183
	c-0.411-0.108-0.849-0.04-1.202,0.171c-0.396,0.114-0.73,0.408-0.897,0.776c-0.118,0.304,0.11,0.577,0.278,0.808
	c-0.313-0.035-0.64-0.041-0.953-0.082c0.112-0.449-0.236-0.816-0.557-1.087c-0.297-0.205-0.664,0.033-0.993-0.069
	c-0.222,0.117-0.437,0.273-0.708,0.211l-0.201,0.103c-0.293-0.103-0.584-0.218-0.877-0.319l-0.458-0.348l-0.556-0.135l-0.459-0.178
	c-0.159-0.232-0.43-0.328-0.66-0.469c-0.041-0.238-0.146-0.457-0.18-0.695l-0.139-0.393l-0.391-0.24l-0.234-0.448l-0.051-0.543
	c0-0.225,0.063-0.455-0.013-0.673c-0.125-0.203-0.3-0.388-0.355-0.618l0.139-0.545c0.147,0.299,0.452,0.469,0.689,0.701
	c0.252,0.101,0.576,0.094,0.807-0.061c0.223-0.143,0.451-0.288,0.652-0.451c0.175-0.216,0.188-0.516,0.355-0.739l0.229-0.254
	c0.382-0.059,0.701-0.317,1.098-0.292c0.586,0.05,1.1,0.368,1.619,0.594l0.488-0.09c0.275-0.168,0.541-0.422,0.61-0.753
	c0.099-0.429,0.099-0.871,0.099-1.307c0.007-0.312-0.099-0.613-0.105-0.918c0.494,0.204,1,0.375,1.529,0.489l0.557-0.06l0.416,0.089
	l0.348-0.095l0.424,0.204c0.277,0.007,0.557-0.063,0.82,0.015c0.319,0.086,0.652,0.038,0.979,0.106
	c0.61-0.053,1.251-0.04,1.822-0.293c0.263-0.08,0.555,0.028,0.812-0.095c0.284-0.135,0.502-0.379,0.771-0.536l0.563-0.022
	c0.749-0.034,1.444-0.373,2.099-0.707c0.299-0.149,0.569-0.36,0.896-0.454c0.395-0.083,0.584-0.478,0.828-0.748
	c0.471,0.08,0.854-0.213,1.275-0.363c0.259-0.108,0.383-0.38,0.601-0.544l0.521-0.102L45.5,14.112z"/>
<path style="fill:#006752;" d="M27.959,28.092c0.402,0.329,0.604,0.837,0.682,1.336c0.041,0.231,0,0.469-0.092,0.692
	c-0.332-0.211-0.52-0.57-0.603-0.94C27.863,28.822,27.842,28.448,27.959,28.092z"/>
<path style="fill:#006752;" d="M39.795,29.087c0.104-0.375,0.292-0.748,0.604-0.995c0.153,0.477,0.083,1-0.111,1.458
	c-0.091,0.238-0.271,0.429-0.479,0.57C39.662,29.788,39.691,29.421,39.795,29.087z"/>
<path style="fill:#006752;" d="M26.125,28.442c0.494,0.062,0.938,0.326,1.293,0.659c0.234,0.216,0.41,0.504,0.417,0.823
	C27.064,29.76,26.237,29.271,26.125,28.442z"/>
<path style="fill:#006752;" d="M41.053,28.998c0.334-0.279,0.735-0.504,1.188-0.556c-0.117,0.829-0.943,1.318-1.715,1.482
	C40.532,29.55,40.769,29.231,41.053,28.998z"/>
<path style="fill:#006752;" d="M28.858,29.482l0.16-0.553c0.479,0.484,0.818,1.26,0.435,1.886
	C29.119,30.447,28.876,29.984,28.858,29.482z"/>
<path style="fill:#006752;" d="M38.905,30.815c-0.381-0.625-0.041-1.408,0.439-1.886c0.118,0.191,0.188,0.402,0.159,0.621
	C39.462,30.026,39.225,30.468,38.905,30.815z"/>
<path style="fill:#006752;" d="M29.974,29.584c0.403,0.334,0.71,0.808,0.759,1.331l-0.146,0.602
	C29.996,31.074,29.809,30.264,29.974,29.584z"/>
<path style="fill:#006752;" d="M37.627,30.915c0.049-0.516,0.348-0.998,0.756-1.325c0.175,0.679-0.02,1.489-0.604,1.927
	L37.627,30.915z"/>
<path style="fill:#006752;" d="M26.354,30.249c0.744-0.156,1.606-0.046,2.184,0.47c-0.285,0.232-0.675,0.294-1.029,0.211
	C27.069,30.829,26.625,30.616,26.354,30.249z"/>
<path style="fill:#006752;" d="M30.955,30.101c0.368,0.327,0.702,0.72,0.84,1.197c0.07,0.238,0.027,0.49-0.082,0.714
	c-0.446-0.32-0.681-0.836-0.785-1.36L30.955,30.101z"/>
<path style="fill:#006752;" d="M36.597,31.189c0.161-0.429,0.468-0.789,0.808-1.088c0.118,0.43-0.021,0.87-0.209,1.252
	c-0.125,0.258-0.318,0.488-0.549,0.659C36.516,31.76,36.494,31.461,36.597,31.189z"/>
<path style="fill:#006752;" d="M39.824,30.719c0.576-0.516,1.438-0.626,2.183-0.47c-0.272,0.374-0.717,0.579-1.162,0.68
	C40.497,31.013,40.108,30.951,39.824,30.719z"/>
<path style="fill:#006752;" d="M32.018,30.475c0.729,0.332,1.05,1.19,0.917,1.938C32.371,31.943,31.914,31.223,32.018,30.475z"/>
<path style="fill:#006752;" d="M35.423,32.413c-0.132-0.747,0.188-1.606,0.925-1.938C36.445,31.223,35.987,31.943,35.423,32.413z"/>
<path style="fill:#006752;" d="M27.453,31.442c0.166-0.158,0.367-0.307,0.611-0.328c0.438-0.049,0.869,0.109,1.292,0.21
	c-0.259,0.314-0.696,0.375-1.083,0.375C27.981,31.699,27.689,31.617,27.453,31.442z"/>
<path style="fill:#006752;" d="M39.002,31.324c0.424-0.101,0.856-0.259,1.301-0.21c0.236,0.021,0.438,0.17,0.604,0.328
	c-0.389,0.299-0.923,0.299-1.383,0.188L39.002,31.324z"/>
<path style="fill:#006752;" d="M28.599,32.406c0.41-0.591,1.278-0.898,1.945-0.557C30.051,32.33,29.295,32.651,28.599,32.406z"/>
<path style="fill:#006752;" d="M37.871,31.83c0.658-0.307,1.494,0,1.889,0.577c-0.604,0.224-1.271-0.014-1.758-0.388L37.871,31.83z"
	/>
<path style="fill:#006752;" d="M29.718,32.937c0.474-0.498,1.245-0.723,1.911-0.498c-0.131,0.204-0.291,0.401-0.521,0.513
	C30.676,33.168,30.156,33.106,29.718,32.937z"/>
<path style="fill:#006752;" d="M36.737,32.439c0.66-0.225,1.433,0,1.904,0.498c-0.438,0.163-0.959,0.231-1.389,0.015
	C37.03,32.841,36.869,32.643,36.737,32.439z"/>
<path style="fill:#006752;" d="M32.276,32.433c0.633,0.145,1.259,0.34,1.904,0.415c0.646-0.075,1.271-0.271,1.904-0.409
	c-0.495,0.184-0.994,0.354-1.502,0.513c0.313,0.086,0.617,0.23,0.891,0.406c-0.438-0.075-0.855-0.218-1.293-0.286
	c-0.438,0.068-0.855,0.212-1.285,0.286c0.27-0.183,0.569-0.32,0.882-0.406C33.276,32.793,32.77,32.623,32.276,32.433z"/>
<path style="fill:#006752;" d="M30.802,33.63c0.403-0.57,1.112-0.932,1.821-0.883c-0.16,0.298-0.354,0.604-0.682,0.753
	C31.588,33.671,31.184,33.658,30.802,33.63z"/>
<path style="fill:#006752;" d="M35.737,32.747c0.708-0.049,1.426,0.313,1.821,0.883c-0.417,0.028-0.87,0.041-1.237-0.182
	C36.042,33.289,35.883,33.012,35.737,32.747z"/>
<path style="fill:none;" d="M58.688,39.591h-49v-32h49V39.591z M9.788,39.493h48.8V7.688h-48.8V39.493z"/>
</svg>
