<?xml version="1.0" encoding="iso-8859-1"?>
<!-- Generator: Adobe Illustrator 19.2.0, SVG Export Plug-In . SVG Version: 6.00 Build 0)  -->
<svg version="1.1" id="Layer_1" xmlns="http://www.w3.org/2000/svg" xmlns:xlink="http://www.w3.org/1999/xlink" x="0px" y="0px"
	 viewBox="0 0 49 32" style="enable-background:new 0 0 49 32;" xml:space="preserve">
<g>
	<rect style="fill:#5C97B1;" width="49" height="32"/>
	<rect style="fill:#273476;" width="24.5" height="16"/>
	<polygon style="fill:#FFFFFF;" points="24.5,5.601 14.699,5.601 14.699,0 9.799,0 9.799,5.601 0,5.601 0,10.402 9.799,10.402 
		9.799,16 14.699,16 14.699,10.402 24.5,10.402 	"/>
	<polygon style="fill:#FFFFFF;" points="24.5,14.161 2.811,0 0,0 0,1.854 21.666,16 24.5,16 	"/>
	<polygon style="fill:#FFFFFF;" points="0,14.161 21.686,0 24.5,0 24.5,1.854 2.834,16 0,16 	"/>
	<polygon style="fill:#D0202D;" points="24.5,6.601 13.678,6.601 13.678,0 10.818,0 10.818,6.601 0,6.601 0,9.4 10.818,9.4 
		10.818,16 13.678,16 13.678,9.4 24.5,9.4 	"/>
	<polygon style="fill:#D0202D;" points="24.5,15.954 24.5,14.691 17.914,10.402 15.975,10.402 	"/>
	<polygon style="fill:#D0202D;" points="24.5,0 22.563,0 14.699,5.124 14.699,5.601 15.906,5.601 24.5,0.002 	"/>
	<polygon style="fill:#D0202D;" points="8.527,10.402 0,15.955 0,16 1.871,16 9.799,10.834 9.799,10.402 	"/>
	<polygon style="fill:#D0202D;" points="0,0.012 0,1.274 6.639,5.601 8.578,5.601 	"/>
	<path style="fill:#D31F36;" d="M42.113,9.125c0,0,0,6.808,0,8.736c0,1.933-2.559,3.864-5.363,5.014
		c-2.811-1.15-5.365-3.081-5.365-5.014c0-1.928,0-8.739,0-8.739h10.729V9.125z"/>
	<path style="fill:#010101;" d="M42.113,9.125H42.1c0,0,0,6.808,0,8.736c0.002,1.921-2.551,3.852-5.355,5.003
		c-2.797-1.15-5.348-3.082-5.344-5.003c0-1.928,0-8.729,0-8.739h-0.016v0.014h10.729V9.123H42.1v0.003H42.113h0.014V9.123V9.111
		H31.371v0.012c0,0,0,6.811,0,8.739c0.002,1.944,2.561,3.875,5.373,5.026c2.818-1.151,5.381-3.082,5.383-5.026
		c0-1.928,0-8.728,0-8.736H42.113z"/>
	<path style="fill:#FFFFFF;" d="M35.744,22.424c-2.389-1.168-4.359-2.863-4.359-4.563h4.359V22.424z"/>
	<path style="fill:#010101;" d="M35.744,22.424l0.006-0.012c-2.387-1.166-4.354-2.861-4.35-4.55h-0.016v0.013h4.346v4.55H35.744
		l0.006-0.012L35.744,22.424h0.014v-4.575h-4.387v0.013c0.002,1.71,1.979,3.405,4.365,4.574l0.021,0.01v-0.021H35.744z"/>
	<path style="fill:#FFFFFF;" d="M31.385,15.896c0-1.025,0-2.171,0-3.2h4.359v3.2H31.385z"/>
	<path style="fill:#010101;" d="M31.385,15.896H31.4c0-1.025,0-2.171,0-3.2h-0.016v0.013h4.346v3.174h-4.346V15.896H31.4H31.385
		v0.013h4.373v-3.226h-4.387v0.013c0,1.029,0,2.175,0,3.2v0.013h0.014V15.896z"/>
	<path style="fill:#FFFFFF;" d="M37.754,22.424c2.387-1.168,4.359-2.863,4.359-4.563h-4.359V22.424z"/>
	<path style="fill:#010101;" d="M37.754,22.424l0.004,0.012c2.389-1.169,4.367-2.864,4.369-4.574v-0.013H37.74v4.597l0.018-0.01
		L37.754,22.424h0.014v-4.55h4.346v-0.013H42.1c0.002,1.689-1.967,3.384-4.352,4.55L37.754,22.424h0.014H37.754z"/>
	<path style="fill:#FFFFFF;" d="M42.113,15.896c0-1.025,0-2.171,0-3.2h-4.359v3.2H42.113z"/>
	<path style="fill:#010101;" d="M42.113,15.896h0.014c0-1.025,0-2.171,0-3.2v-0.013H37.74v3.226h4.387v-0.013H42.113v-0.014h-4.346
		v-3.174h4.346v-0.013H42.1c0,1.029,0,2.175,0,3.2H42.113v-0.014V15.896z"/>
	<path style="fill:#010101;" d="M41.686,11.607l-0.197-0.355l-0.086-0.218l-0.242-0.092c-0.24,0.008-0.463,0.104-0.697,0.12
		l-0.424-0.12l-0.313-0.342l0.42-0.129l0.322-0.436l0.154-0.094l0.293,0.25l0.061-0.219l-0.133-0.193l-0.299-0.026l-0.076-0.141
		l-0.092-0.083l0.047-0.181l-0.199,0.108l-0.018,0.186l-0.355-0.168L39.26,9.496c-0.506,0.102-0.986,0.322-1.506,0.353L37.15,9.753
		L37.08,9.59l-0.252-0.065c-0.234,0.025-0.449,0.132-0.682,0.164l-0.197-0.055l-0.008-0.228l-0.146,0.282l0.262,0.253l-0.086,0.122
		l0.041,0.198l0.23,0.143l-0.06-0.144l0.057-0.196l0.184-0.042l0.478,0.077l0.16-0.026l0.055-0.101
		c0.33,0.077,0.678,0.063,1.014,0.005c0.264-0.048,0.527-0.123,0.785-0.195c0.227-0.061,0.457-0.125,0.693-0.137l0.424,0.125
		l0.148,0.256l-0.148,0.267l-0.51,0.135l-0.078-0.038c-0.217-0.135-0.473-0.201-0.727-0.185c-0.281,0.012-0.551,0.1-0.809,0.195
		c-0.404,0.146-0.809,0.313-1.234,0.396c-0.328,0.063-0.668,0.076-0.996,0.019l0.064-0.125l-0.385-0.032l-0.4-0.328l0.051-0.239
		l0.33-0.188l0.07-0.034l-0.014-0.052l-0.158-0.005l-0.119-0.067L35.07,9.855l-0.143-0.159l0.109-0.018l-0.014-0.133l0.02-0.07
		l-0.119-0.06l-0.047,0.043L34.75,9.509l0.035,0.103l-0.211-0.05l0.08-0.091L34.535,9.4l-0.076-0.142h-0.041L34.41,9.374
		l-0.019,0.352l-0.19,0.186l0.033,0.066l-0.115,0.086l-0.158,0.051l-0.117-0.051l0.092,0.208l-0.184,0.081l-0.129-0.005
		l-0.354-0.172l-0.373-0.136l-0.205,0.027l-0.215,0.142l-0.104,0.032l-0.225-0.022l-0.221,0.22l0.023,0.173
		c-0.125,0.183-0.215,0.394-0.213,0.62l0.109,0.422l0.076,0.133l-0.08-0.112l0.004,0.219l0.225,0.162l0.141-0.007l0.092,0.063
		l0.242,0.044l0.336,0.094l0.359,0.031l0.193-0.087l0.363-0.233l0.004,0.051l0.088-0.065l0.338-0.267l0.199,0.311l0.018-0.137
		l0.15-0.261l0.326,0.261l0.195,0.184l0.004-0.182c0.252,0.084,0.521,0.038,0.766-0.029c0.438-0.126,0.84-0.335,1.238-0.544
		c0.217-0.113,0.434-0.229,0.656-0.335l0.475-0.181l0.271,0.015l0.17,0.177l-0.023,0.052l-0.201,0.043l-0.201,0.059l-0.076,0.128
		l-0.141,0.128l-0.004,0.034l0.242-0.025v0.294l0.148,0.18l-0.375,0.102l-0.205-0.065l-0.152-0.15L37.4,11.701l-0.152,0.051
		l-0.039,0.04l0.061,0.009l-0.113,0.09l-0.148,0.2l0.164-0.09l0.057,0.093l-0.016,0.064l-0.103,0.083l-0.018,0.167l0.191-0.134
		l0.158,0.074l0.205-0.12l0.211-0.012l0.555-0.031l0.584-0.319l-0.189-0.247l0.146-0.236l0.281-0.13l0.059-0.059l0.121,0.335
		l0.168-0.268l0.246,0.144l0.223,0.072l0.008-0.141l0.273,0.085l0.42-0.042l0.252,0.002l0.244,0.212l0.076,0.182l-0.084,0.145
		l-0.217,0.045l-0.131-0.076l-0.131,0.059l-0.183-0.078l-0.08,0.343l-0.031,0.105l0.135,0.162l0.033-0.211l0.068,0.032l0.182,0.258
		l0.008-0.24l0.105,0.021l0.254,0.222l-0.057-0.076l-0.018-0.173l0.113-0.008l0.115-0.217l0.26-0.164l0.092-0.151V11.71
		L41.686,11.607z M33.563,11.711l-0.307,0.207l-0.211,0.052l-0.164-0.023l-0.145-0.104l-0.035-0.202l0.092-0.546l-0.205-0.483
		l0.043-0.061l-0.006-0.174l0.059-0.044l0.146,0.012l0.203,0.072l0.338,0.244l-0.297,0.049l0.439,0.234l-0.303,0.119l0.416,0.131
		l-0.203,0.374l-0.133,0.085L33.563,11.711z"/>
	<polygon style="fill:#FDD109;" points="34.436,9.292 34.5,9.46 34.551,9.436 34.615,9.472 34.561,9.525 34.506,9.512 34.699,9.66 
		34.883,9.585 34.789,9.559 34.826,9.486 34.883,9.517 34.93,9.45 35.006,9.483 34.967,9.543 34.971,9.566 35.023,9.609 
		34.98,9.666 34.906,9.6 34.912,9.774 35.146,9.893 35.105,9.814 35.172,9.784 35.193,9.875 35.379,9.848 35.254,9.898 
		34.945,10.099 34.912,10.117 34.764,9.975 34.4,9.817 34.453,9.408 	"/>
	<path style="fill:#FDD109;" d="M40.252,9.48l0.104-0.084v0.173l0.107,0.086l0.031,0.116l0.029,0.031l0.299,0.011l0.117,0.263
		l-0.025-0.011l-0.211-0.147l-0.209,0.033l-0.096,0.137l-0.324,0.39l-0.414,0.079l-0.035,0.027l0.094,0.059l0.254,0.289l0.397,0.167
		c0.271,0.012,0.523-0.111,0.787-0.119l0.203,0.062l0.09,0.208l0.213,0.381l0.063,0.098l-0.055,0.14l-0.307,0.209l-0.098,0.196
		l-0.109-0.019l-0.014,0.063l-0.006-0.046l0.006,0.206L41.1,12.458l-0.063-0.117l0.016-0.07l-0.08,0.032l-0.08-0.039l-0.057,0.234
		l-0.088-0.122v-0.108l-0.1-0.048l-0.092,0.195l-0.045-0.152l0.039-0.064l-0.057-0.044l0.092-0.252l0.154,0.083v0.162l0.031-0.009
		l0.043-0.192l0.182,0.064l0.016,0.132l0.033-0.017l0.008-0.136l0.115-0.016l0.189-0.165l-0.066-0.218l-0.289-0.253l-0.305,0.014
		l-0.465,0.014l-0.295-0.169l-0.02,0.031l0.076,0.066l0.031,0.111l-0.217-0.039l-0.223-0.158l-0.07-0.15l-0.043,0.004l0.07,0.157
		l-0.094,0.214l-0.111-0.247l-0.246-0.155l-0.027-0.135l-0.021,0.015l-0.029,0.201l-0.367,0.119l0.098-0.217l-0.188-0.258
		l-0.307-0.025l-0.621,0.25c-0.416,0.211-0.82,0.44-1.248,0.627c-0.231,0.099-0.461,0.188-0.711,0.233l-0.551-0.024l-0.014-0.152
		l0.311,0.084l0.359-0.029l-0.293-0.355l0.281,0.002l0.26-0.214l-0.238-0.046l-0.264-0.194l0.117-0.061
		c0.258,0.041,0.523,0.051,0.785,0.02c0.498-0.053,0.967-0.237,1.43-0.411c0.27-0.1,0.547-0.197,0.836-0.215l0.641,0.126l0.15,0.089
		l0.453-0.065l0.254-0.238l-0.02-0.293l-0.359-0.234l-0.535,0.028c-0.238,0.05-0.471,0.123-0.709,0.184
		c-0.27,0.071-0.545,0.132-0.822,0.144c-0.223,0.014-0.447-0.007-0.666-0.057l-0.029,0.11l-0.15,0.023l-0.443-0.07l-0.25,0.061
		l-0.037,0.283L36,10.154l0.072-0.175l0.053-0.049l-0.283-0.221l0.045-0.213l0.063,0.193l0.229,0.034
		c0.225-0.037,0.432-0.136,0.662-0.161l0.213,0.054l0.061,0.163c0.24,0.108,0.514,0.126,0.771,0.096
		c0.463-0.056,0.891-0.236,1.342-0.335c0.229-0.05,0.473-0.08,0.701-0.006l0.309,0.178l0.023-0.034L40.252,9.48z"/>
	<polygon style="fill:#010101;" points="34.451,9.726 34.676,9.801 34.975,10.028 34.975,10.039 34.953,10.056 34.773,9.902 
		34.459,9.761 	"/>
	<polygon style="fill:#FDD109;" points="34.24,9.893 34.379,9.763 34.371,9.848 34.668,9.955 34.9,10.156 34.98,10.118 
		34.953,10.291 34.826,10.295 34.654,10.586 34.428,10.715 34.33,10.817 34.24,10.799 34.369,10.587 34.486,10.616 34.484,10.589 
		34.395,10.557 34.414,10.404 34.531,10.384 34.518,10.35 34.381,10.328 34.363,10.257 34.381,10.384 34.248,10.468 34.188,10.417 
		34.156,10.418 34.234,10.507 34.109,10.718 34.053,10.608 34.104,10.481 34.115,10.22 34.289,9.981 	"/>
	<polygon style="fill:#010101;" points="34.33,10.026 34.359,10.002 34.535,10.066 34.506,10.096 34.443,10.136 34.469,10.066 
		34.402,10.053 34.369,10.106 34.361,10.091 34.346,10.031 	"/>
	<polygon style="fill:#FDD109;" points="32.729,10.087 32.918,10.077 33.242,10.2 33.586,10.375 33.609,10.402 33.65,10.483 
		33.416,10.638 33.076,10.404 32.758,10.298 32.615,10.323 32.594,10.483 32.572,10.576 32.465,10.593 32.418,10.68 32.396,10.593 
		32.322,10.593 32.305,10.495 32.363,10.438 32.352,10.406 32.287,10.608 32.252,10.627 32.217,10.656 32.209,10.618 32.191,10.608 
		32.164,10.38 32.168,10.335 32.115,10.587 32.053,10.627 31.971,10.563 32.039,10.326 32.246,10.245 32.451,10.265 	"/>
	<polygon style="fill:#FDD109;" points="33.881,10.136 34.127,10.099 34.072,10.257 34.064,10.486 34.01,10.651 34.104,10.762 
		34.141,10.805 34.219,10.828 34.348,10.85 34.459,10.734 34.709,10.593 34.846,10.356 34.879,10.35 35.037,10.828 35.059,10.858 
		34.934,10.828 34.85,10.763 34.832,11.026 34.85,11.127 34.596,10.956 34.564,10.961 34.494,11.319 34.322,11.204 34.262,10.98 
		34.227,10.975 33.879,11.193 33.92,10.891 33.963,10.82 33.811,10.847 33.602,10.752 33.779,10.625 33.881,10.548 33.883,10.523 
		33.76,10.515 33.645,10.394 33.865,10.347 34.008,10.291 34.01,10.261 	"/>
	<polygon style="fill:#010101;" points="34.623,10.124 34.758,10.237 34.766,10.265 34.729,10.267 34.672,10.261 34.707,10.235 
		34.658,10.18 34.6,10.235 	"/>
	<polygon style="fill:#FDD109;" points="35.131,10.878 34.92,10.347 35.373,10.702 35.697,10.734 35.422,10.896 35.426,10.926 
		35.607,10.996 35.82,11.171 35.949,11.197 35.602,11.347 35.35,11.286 35.338,11.317 35.715,11.684 35.715,11.696 35.191,11.664 
		35.049,11.56 35.086,11.933 34.723,11.68 34.621,11.521 34.584,11.524 34.395,11.888 34.281,11.731 34.26,11.555 34.227,11.558 
		34.102,11.776 33.838,11.933 33.877,11.536 33.623,11.659 33.371,11.657 33.461,11.58 33.65,11.226 33.77,11.14 33.752,11.11 
		33.496,11.171 33.291,11.095 33.516,10.993 33.604,10.904 33.252,10.834 33.158,10.752 33.678,10.512 33.795,10.561 33.637,10.698 
		33.531,10.712 33.656,10.836 33.883,10.882 33.844,11.162 33.773,11.221 34.229,11.042 34.322,11.261 34.543,11.369 34.535,11.254 
		34.594,11.031 34.625,11.04 34.801,11.134 34.871,11.211 34.879,11.059 34.869,10.836 	"/>
	<polygon style="fill:#FDD109;" points="34.27,10.525 34.346,10.484 34.338,10.568 34.209,10.773 34.148,10.763 34.158,10.689 	"/>
	<path style="fill:#FFFFFF;" d="M32.135,10.638l0.035,0.004l0.135,0.121l-0.02-0.114l0.086-0.018v0.119l0.063-0.026
		c0.08,0.286,0.096,0.593,0.029,0.883l-0.041,0.067l-0.1-0.053l-0.006-0.076l0.024-0.061l-0.094,0.044l-0.055,0.093l-0.066-0.054
		l-0.012-0.119l-0.027-0.016l-0.031,0.039c-0.033-0.252-0.016-0.513,0.059-0.756l0.055-0.013L32.135,10.638z"/>
	<path style="fill:#FFFFFF;" d="M31.774,11.231l0.205-0.591l0.043,0.017l0.055,0.049c-0.076,0.259-0.098,0.54-0.053,0.808
		l-0.018,0.104l-0.018,0.168l-0.029-0.021L31.774,11.231z"/>
	<path style="fill:#FFFFFF;" d="M32.465,10.708l0.025-0.072l0.063-0.009c0.135,0.184,0.225,0.408,0.211,0.639l-0.096,0.359
		l-0.027-0.02l-0.115-0.165C32.559,11.193,32.535,10.944,32.465,10.708z"/>
	<path style="fill:#FDD109;" d="M38.574,11.078l0.135-0.041l-0.152,0.215l0.389-0.041l0.137-0.144l0.176,0.102l-0.299,0.172
		l-0.189,0.262l0.164,0.263l-0.029,0.026c-0.182,0.145-0.398,0.244-0.631,0.289h-0.412l-0.18-0.011l-0.213,0.142l-0.168-0.069
		l-0.174,0.069l0.027-0.069l0.094-0.061l0.068-0.133l0.211-0.017L37.533,12l-0.254,0.032l-0.039,0.02l-0.041-0.09L37.09,11.99
		l0.098-0.072l0.113-0.083l0.154,0.011l0.014-0.03l-0.174-0.049l0.107-0.022l0.275,0.015l0.16,0.16l0.264,0.068l0.385-0.119
		l0.01-0.025l-0.189-0.238l0.029-0.236l0.014-0.047l-0.053,0.009l-0.182,0.045l0.105-0.107l0.078-0.131L38.574,11.078z"/>
	<polygon style="fill:#FDD109;" points="32.074,11.518 32.094,11.597 32.15,11.639 32.127,11.718 32.213,11.85 32.205,11.804 
		32.191,11.653 32.227,11.649 32.273,11.547 32.289,11.653 32.412,11.723 32.457,11.742 32.467,11.664 32.52,11.617 32.541,11.511 
		32.602,11.647 32.602,11.629 32.611,11.649 32.688,11.684 32.695,11.853 32.809,11.936 32.932,12.005 33.184,11.978 33.557,11.763 
		33.67,11.68 33.764,11.638 33.807,11.625 33.795,11.783 33.791,11.927 33.408,12.166 33.113,12.256 32.758,12.166 32.525,12.121 
		32.287,12.052 32.178,12.012 31.899,11.915 31.869,11.798 32.006,11.826 32.121,11.915 32.141,11.882 32.014,11.742 32.068,11.607 
			"/>
	<path style="fill:#010101;" d="M38.551,12.849l0.297,0.169l-0.021-0.174l0.231,0.192l-0.049-0.161l0.219,0.205l-0.033-0.179
		l0.254,0.265l0.027,0.033l-0.045-0.183l0.199,0.207l0.113,0.034l-0.117-0.194l0.02-0.028l0.162,0.095l-0.018-0.229l0.174,0.169
		l0.182-0.219l-0.031,0.279l0.227-0.06l-0.186,0.276l0.465-0.292l0.191-0.123l0.053-0.086l0.012,0.133l0.266-0.081l-0.088,0.131
		l0.428-0.083l-0.135,0.125l0.354,0.02l-0.193,0.094l0.32,0.202l-0.307-0.015l0.104,0.27l-0.293-0.158l0.051,0.163l0.01,0.01
		l-0.025,0.002l-0.328-0.192l-0.035-0.008l0.104,0.16l-0.42-0.124l0.119,0.108l-0.066,0.01l-0.193,0.025v0.01l0.266,0.083
		l0.43,0.375l0.008,0.518h-0.039l-0.074-0.332l-0.146,0.225l-0.012-0.254l-0.102,0.14l-0.064-0.228l-0.045-0.045l-0.111,0.215
		l-0.076-0.237l-0.084,0.138l0.246,0.435l-0.004,0.379l-0.143,0.228l-0.008-0.23l-0.17,0.147l0.041-0.11l0.033-0.106l-0.014-0.025
		l-0.152,0.163l0.055-0.351l0.008-0.053l-0.166,0.151l0.043-0.344l-0.119,0.143l-0.059-0.346l-0.02,0.076
		c0,0.274,0.006,0.547,0.041,0.817l0.121,0.482v0.012l-0.225-0.126l-0.125,0.162l-0.043-0.152l-0.225,0.076
		c0.115-0.218,0.184-0.457,0.201-0.702l-0.006-0.474l-0.035,0.131l-0.023,0.01l-0.066-0.175l-0.037,0.166l-0.09,0.191L39.5,14.656
		l-0.076,0.345l-0.004,0.12l-0.141-0.228l-0.09,0.334l-0.088-0.153l-0.096,0.184l-0.029-0.011l0.074-0.641
		c0.107-0.278,0.334-0.504,0.607-0.637l-0.191,0.058l-0.072,0.082l-0.021-0.161l-0.123,0.208l-0.031,0.003l-0.025-0.165
		l-0.014-0.018l0.01,0.016l-0.113,0.255l-0.035,0.003l-0.045-0.189l-0.057,0.24l-0.104-0.182l-0.074,0.313l-0.127-0.235
		l-0.168,0.232l-0.043,0.072l0.016-0.386l0.146-0.233l0.086-0.077h0.021l0.047-0.04l0.205-0.089l-0.006-0.183l-0.242,0.295H38.66
		l-0.004-0.231l-0.191,0.238l0.041-0.367l-0.316,0.404l0.01-0.374l0.061-0.135l-0.193,0.049l0.004-0.071l0.365-0.19l-0.143-0.137
		v-0.032l0.33,0.134L38.551,12.849z"/>
	<polygon style="fill:#13AB4B;" points="38.635,12.919 38.867,13.107 38.883,12.919 39.057,13.103 39.102,13.123 39.076,12.963 
		39.234,13.161 39.262,13.145 39.262,12.999 39.482,13.323 39.5,13.223 39.502,13.11 39.732,13.481 39.76,13.583 39.246,13.314 
		38.658,13.238 38.658,13.274 39.279,13.361 39.789,13.664 39.635,13.603 39.33,13.524 39.193,13.585 39.193,13.487 39.234,13.429 
		38.977,13.595 38.988,13.44 38.92,13.467 38.686,13.718 38.697,13.55 38.711,13.484 38.531,13.624 38.494,13.656 38.525,13.466 
		38.586,13.361 38.225,13.656 38.211,13.659 38.273,13.377 38.334,13.295 38.113,13.309 38.4,13.155 38.504,13.163 38.389,12.999 
		38.623,13.13 38.646,13.148 	"/>
	<path style="fill:#13AB4B;" d="M40.869,13.024l0.195-0.093l-0.063,0.17l0.104-0.061l0.281-0.065l-0.137,0.18l0.16-0.071
		l0.172,0.007l-0.148,0.128l0.313,0.123l-0.299,0.015l0.092,0.101l0.043,0.113l-0.355-0.138l0.1,0.138l-0.428-0.149l0.059,0.042
		l0.082,0.085l-0.324-0.089l-0.117,0.032l0.141,0.087l-0.244,0.046l-0.205,0.011l-0.15,0.052l0.102-0.008l0.293-0.004l0.498,0.224
		l0.146,0.165l0.053,0.474l-0.129-0.373l-0.016,0.19l-0.049,0.069l-0.043-0.229l-0.022-0.007l-0.07,0.116l-0.049-0.126l-0.133-0.141
		l-0.027,0.24l-0.053-0.154l-0.055-0.05l-0.051-0.118l-0.045,0.006l0.055,0.143l-0.053,0.082l-0.248-0.217l-0.186-0.004l0.008,0.02
		l0.406,0.293l0.236,0.42l-0.002,0.316l-0.076,0.181l-0.008-0.146l0.012-0.217l-0.012-0.006l-0.014,0.003l-0.02,0.126l-0.104,0.17
		l0.041-0.189l0.043-0.262l-0.035-0.021l-0.019,0.144l-0.092,0.195l-0.037,0.027l0.025-0.238l0.008-0.22l-0.004-0.116h-0.029
		l-0.002,0.211l-0.104,0.139l0.023-0.19l-0.049-0.263l-0.035-0.018l0.024,0.135l-0.055,0.119l-0.082-0.278l0.02-0.12l-0.025,0.002
		l-0.049,0.139l-0.033,0.023l-0.043-0.188l-0.027,0.062l-0.029,0.103l-0.1-0.216l-0.066,0.441l-0.06-0.207h-0.035l-0.014,0.129
		L39.57,14.72l-0.068-0.232l-0.035-0.006l-0.02,0.259l-0.07,0.271l-0.088-0.209l0.02-0.227l-0.035-0.004l-0.021,0.148l-0.016,0.188
		l-0.07,0.197l-0.041-0.076l0.055-0.266l-0.035-0.019l-0.047,0.26l-0.088,0.165l0.096-0.6l0.445-0.502l0.182-0.097l-0.197-0.022
		l-0.105,0.064l-0.012-0.004l-0.006-0.104l0.047-0.093l-0.045,0.021l-0.088,0.127l-0.084,0.126l-0.016-0.147l0.059-0.105
		l-0.035-0.006l-0.189,0.349l-0.027-0.209l0.043-0.065l-0.043-0.003l-0.057,0.117l-0.064,0.194l-0.029-0.199l0.049-0.088
		l-0.045,0.004l-0.07,0.158l-0.084,0.281l-0.068-0.215l0.047-0.168l-0.037,0.013l-0.043,0.133l-0.039,0.062l-0.135,0.184
		l-0.016-0.073l0.26-0.465l0.213-0.11c0.285-0.099,0.594-0.08,0.881-0.019l0.076,0.047l-0.023-0.056l-0.092-0.303l-0.043-0.114
		l0.082,0.023l-0.096-0.204l0.129,0.118l0.016-0.232l0.123,0.189l0.121-0.236l-0.014,0.148l0.014,0.096l0.152-0.061l-0.174,0.407
		v0.102l0.027,0.005l0.031-0.198l0.313-0.251l0.271-0.143l0.119-0.07l-0.055,0.121l0.025,0.009L40.869,13.024z"/>
	<path style="fill:#010101;" d="M40.59,13.292c0.217-0.083,0.459-0.097,0.682-0.035l-0.008,0.027l-0.387-0.027
		c-0.297,0.032-0.568,0.192-0.758,0.407h-0.051L40.59,13.292z"/>
	<polygon style="fill:#FFFFFF;" points="38.988,13.664 39.156,13.494 39.166,13.634 	"/>
	<polygon style="fill:#FFFFFF;" points="39.207,13.631 39.363,13.553 39.646,13.649 39.617,13.639 	"/>
	<path style="fill:#FFFFFF;" d="M40.15,13.989l0.316,0.229L40.15,13.989z"/>
	<path style="fill:#C15427;" d="M39.975,14.284l0.002-0.002l-0.016,0.167l0.07-0.037l0.004,0.384l0.047,0.521l0.086,0.339
		l-0.102-0.063l-0.064-0.085l-0.104,0.171l-0.037-0.228H39.83v0.1l-0.154,0.071c0.117-0.24,0.174-0.504,0.178-0.77l-0.023-0.442
		l0.01-0.122l0.012,0.052l0.021-0.052l0.016,0.133l0.061-0.06L39.975,14.284z"/>
	<path style="fill:#010101;" d="M34.4,13.028l0.254-0.058l0.074,0.025l-0.039,0.063l-0.537,0.277l-0.207,0.216l-0.189,0.359
		l0.25-0.163l0.131,0.026l0.068,0.175l-0.004,0.339l0.008,0.173l0.121,0.101l-0.285-0.042l-0.105-0.254l-0.029-0.086l-0.066,0.019
		l-0.135,0.135c0.012,0.298,0.029,0.599,0.033,0.898l-0.063,0.103h-0.213L33.4,15.252c0.012-0.371,0.025-0.741,0.024-1.111
		l-0.063-0.175l-0.057,0.023l-0.074,0.198l0.012,0.477l-0.059,0.114l-0.029,0.017l-0.129-0.325l-0.08-0.306l0.15-0.345l0.191-0.145
		l0.174,0.159l-0.033-0.246l-0.098-0.159l-0.215-0.1l-0.438-0.259l-0.088-0.047l0.408-0.038l0.277,0.044l0.225,0.143l0.15,0.148
		l0.029,0.119l0.01,0.035l-0.002-0.017l0.332-0.297L34.4,13.028z"/>
	<polygon style="fill:#13AB4B;" points="34.469,13.045 34.688,13 34.564,13.093 34.078,13.341 33.865,13.612 33.699,13.947 
		33.682,13.998 33.762,13.96 33.977,13.795 34.096,13.789 34.172,13.96 34.17,14.255 34.164,14.447 34.227,14.532 34.057,14.478 
		33.977,14.298 33.947,14.165 33.844,14.154 33.641,14.366 33.582,14.388 33.449,14.085 33.375,13.927 33.283,13.956 33.195,14.199 
		33.195,14.685 33.162,14.706 33.139,14.649 32.984,14.268 33.045,13.972 33.199,13.75 33.287,13.71 33.4,13.793 33.473,13.951 
		33.5,13.953 33.5,13.848 33.408,13.452 33.188,13.323 32.705,13.045 33.113,13.024 33.531,13.245 33.637,13.377 33.617,13.759 
		33.645,13.758 33.768,13.396 34.074,13.176 	"/>
	<polygon style="fill:#C15427;" points="33.457,14.324 33.465,14.247 33.477,14.295 33.557,14.411 33.674,14.385 33.688,14.696 
		33.701,15.104 33.697,15.27 33.553,15.317 33.434,15.268 33.453,14.888 	"/>
	<path style="fill:#010101;" d="M33.988,12.978l0.105,0.093l0.301,0.099l0.236,0.065l0.174,0.267l0.283-0.126l0.197,0.009
		l0.119,0.157l0.053,0.36l-0.34-0.2l-0.268,0.252l-0.064,0.067l-0.008,0.105l0.287-0.156l0.223,0.165l0.139,0.529l-0.379-0.308
		l-0.07-0.012l-0.1,0.117l0.174,0.191l-0.016,0.286l-0.078,0.372l-0.16-0.076l-0.02-0.295l-0.063-0.202l-0.102,0.031l-0.055,0.101
		c-0.104,0.228-0.203,0.458-0.309,0.684l-0.063,0.063l-0.158-0.025l-0.109-0.106v-0.035c0.154-0.287,0.316-0.572,0.459-0.865
		l0.01-0.281l0.025-0.405l0.107-0.195l-0.076-0.119L34.27,13.5L33.988,12.978z"/>
	<polygon style="fill:#13AB4B;" points="34.029,13.07 34.488,13.22 34.762,13.527 34.551,13.674 34.473,13.56 34.27,13.458 	"/>
	<polygon style="fill:#13AB4B;" points="34.813,13.538 35.125,13.403 35.279,13.422 35.385,13.598 35.422,13.848 35.24,13.761 
		35.125,13.653 35.088,13.678 34.682,14.064 34.648,14.19 34.611,14.4 34.564,14.436 34.445,14.535 34.424,14.535 34.426,14.067 
		34.494,13.805 	"/>
	<polygon style="fill:#13AB4B;" points="34.98,14.024 35.162,14.037 35.279,14.194 35.377,14.583 35.078,14.337 34.975,14.305 
		34.842,14.436 34.789,14.417 34.648,14.4 34.775,14.186 	"/>
	<polygon style="fill:#13AB4B;" points="34.736,14.064 34.734,14.172 34.678,14.265 34.691,14.127 	"/>
	<polygon style="fill:#13AB4B;" points="34.574,14.469 34.766,14.447 34.986,14.607 35.023,14.847 34.912,15.275 34.832,15.225 
		34.805,15.12 34.813,14.947 34.777,14.746 34.66,14.696 34.551,14.776 34.5,14.766 34.4,14.664 	"/>
	<path style="fill:#C15427;" d="M33.973,15.426c0.137-0.241,0.268-0.489,0.398-0.734l0.17,0.127l-0.123,0.276l-0.201,0.44
		l-0.064,0.052l-0.186-0.094L33.973,15.426z"/>
	<path style="fill:#010101;" d="M32.963,13.181l0.578-0.194l0.012,0.042l-0.516,0.429l-0.104,0.121l-0.162,0.425l-0.008,0.173
		c0.117,0.339,0.234,0.676,0.334,1.021l0.027,0.17l-0.219,0.14l-0.111-0.087c-0.074-0.279-0.156-0.557-0.242-0.835l-0.135,0.03
		l-0.172,0.205l-0.16,0.601l-0.223-0.428l0.123-0.426l0.385-0.213l-0.254-0.08l-0.191,0.119l-0.066,0.329l-0.166-0.291l0.029-0.243
		l0.324-0.224l0.357,0.176l-0.252-0.517l-0.162-0.004l-0.121,0.335l-0.156-0.275l0.059-0.284l0.174-0.203l0.207-0.003l0.219,0.217
		l0.182,0.371l0.172-0.455L32.963,13.181z"/>
	<polygon style="fill:#13AB4B;" points="32.992,13.208 33.494,13.045 33.025,13.419 32.873,13.603 32.734,14.024 32.719,14.265 
		32.672,14.413 32.664,14.422 32.523,14.369 32.406,14.335 32.117,14.239 31.906,14.354 31.842,14.576 31.793,14.539 31.709,14.302 
		31.838,14.104 32.109,13.998 32.363,14.149 32.445,14.235 32.418,14.024 32.271,13.698 32.133,13.561 31.965,13.594 31.854,13.865 
		31.744,13.562 31.924,13.248 32.129,13.218 32.355,13.445 32.539,14.039 32.574,14.052 32.584,13.836 32.746,13.353 	"/>
	<path style="fill:#C15427;" d="M32.754,14.268l0.193,0.563l0.143,0.467l-0.197,0.165l-0.063-0.066
		c-0.07-0.266-0.146-0.528-0.23-0.788l0.178,0.063l0.063-0.033l-0.024-0.116l-0.115-0.084L32.754,14.268z"/>
	<polygon style="fill:#13AB4B;" points="32.076,14.52 32.406,14.388 32.783,14.547 32.809,14.626 32.615,14.579 32.426,14.568 
		32.227,14.783 32.061,15.341 31.904,14.957 	"/>
	<polygon style="fill:#010101;" points="40.014,14.216 40.203,14.276 40.189,14.482 39.918,14.453 	"/>
	<polygon style="fill:#C15427;" points="40.021,14.249 40.156,14.276 40.139,14.478 40.027,14.492 39.936,14.412 	"/>
	<polygon style="fill:#010101;" points="34.727,18.387 34.818,18.324 34.854,18.378 34.766,18.575 34.816,18.604 34.715,18.813 
		35.271,18.616 35.438,18.472 35.529,18.47 35.525,18.565 35.375,18.8 35.461,18.84 35.344,19.004 35.354,19.082 35.16,19.307 
		35.148,19.379 34.947,19.539 34.975,19.553 34.85,19.681 34.727,19.805 34.881,20.083 35.094,20.532 35.389,20.774 35.529,20.834 
		35.563,20.905 35.479,21.01 35.279,21.112 35.201,21.159 35.115,21.136 34.975,21.114 34.895,20.962 34.705,20.686 34.391,20.527 
		34.236,20.516 34.146,20.632 34.109,20.624 34.068,20.531 33.965,20.634 33.924,20.507 33.865,20.579 33.852,20.53 33.928,20.342 
		33.814,20.262 33.721,20.369 33.697,20.416 33.639,20.261 33.557,20.342 33.527,20.369 33.498,20.224 33.443,20.228 33.4,20.3 
		33.424,20.127 33.549,20.044 33.439,19.529 33.477,19.089 33.32,18.862 33.158,18.858 33.027,19.034 33.195,19.219 33.248,19.351 
		33.184,19.634 33.221,19.754 32.965,19.63 32.73,19.911 32.617,19.986 32.596,19.803 32.678,19.451 32.484,19.454 32.514,19.323 
		32.17,19.33 32.266,19.145 31.873,19.038 32.143,18.887 31.9,18.594 31.889,18.526 32.117,18.542 32.316,18.642 32.391,18.411 
		32.422,18.478 32.596,18.592 32.688,18.714 32.689,18.5 32.816,18.59 32.971,18.819 33.057,18.646 33.221,18.642 33.416,18.449 
		33.791,18.508 33.91,18.454 33.814,18.686 33.936,18.819 34.033,19.067 34.266,19.223 34.17,19.059 34.049,18.818 34.176,18.62 
		34.402,18.533 	"/>
	<polygon style="fill:#FFFFFF;" points="34.711,18.438 34.816,18.357 34.672,18.62 34.521,18.684 34.549,18.711 34.689,18.655 
		34.783,18.615 34.656,18.817 34.463,18.85 34.314,19.069 34.297,19.262 34.297,19.159 34.166,19.006 34.104,18.748 34.287,18.608 	
		"/>
	<polygon style="fill:#FFFFFF;" points="33.291,18.565 33.547,18.493 33.869,18.528 33.797,18.649 33.719,18.688 33.877,18.786 
		34.01,19.095 34.252,19.262 34.273,19.307 34.156,19.412 34.172,19.441 34.35,19.181 34.391,18.953 34.576,18.858 35.188,18.706 
		35.449,18.514 35.498,18.482 35.457,18.615 35.32,18.813 35.047,18.882 35.031,18.912 35.287,18.868 35.426,18.838 35.32,18.977 
		35.145,19.098 35.01,19.119 35.008,19.153 35.256,19.079 35.326,19.037 35.297,19.107 35.131,19.283 35.1,19.301 34.9,19.34 
		34.895,19.37 35.135,19.342 34.918,19.511 34.809,19.504 34.816,19.539 34.936,19.575 34.766,19.661 34.764,19.693 34.809,19.693 
		34.656,19.801 34.844,20.093 35.088,20.584 35.42,20.825 35.531,20.893 35.461,20.974 35.271,20.83 35.25,20.858 35.426,20.989 
		35.426,21.055 35.316,21.092 35.275,21.012 35.096,20.83 35.078,20.858 35.252,21.045 35.201,21.125 35.107,21.032 35.023,20.891 
		34.99,20.905 35.111,21.102 34.994,21.082 34.926,20.938 34.773,20.7 34.477,20.521 34.287,20.471 34.141,20.56 34.078,20.495 
		33.984,20.546 33.938,20.48 33.891,20.48 33.963,20.359 34.123,20.379 34.127,20.359 34.119,20.346 33.777,20.18 33.781,20.236 
		33.697,20.331 33.674,20.201 33.541,20.292 33.537,20.191 33.434,20.186 33.57,20.081 33.637,20.157 33.66,20.145 33.475,19.555 
		33.51,19.077 33.336,18.829 33.188,18.821 33.076,18.85 33.254,18.694 	"/>
	<polygon style="fill:#13AB4B;" points="32.375,18.508 32.434,18.526 32.66,18.743 32.697,18.806 32.73,18.571 32.844,18.678 
		32.949,18.883 33.012,18.826 33.082,18.691 33.189,18.682 33.041,18.876 33.084,18.892 32.98,19.042 33.201,19.302 33.156,19.549 
		33.162,19.711 32.967,19.579 32.949,19.583 32.672,19.914 32.637,19.928 32.639,19.725 32.701,19.496 32.732,19.412 32.717,19.402 
		32.52,19.426 32.561,19.323 32.566,19.278 32.43,19.308 32.217,19.302 32.322,19.14 32.322,19.098 32.193,19.117 31.947,19.037 
		31.957,19.006 32.193,18.915 32.213,18.878 32.006,18.716 31.928,18.55 32.334,18.695 32.359,18.686 	"/>
	<polygon style="fill:#010101;" points="33.404,18.622 33.461,18.639 33.396,18.671 	"/>
	<polygon style="fill:#010101;" points="34.678,18.929 34.699,18.902 34.758,18.985 34.705,19.134 34.705,19.363 34.59,19.401 
		34.518,19.494 34.346,19.496 34.357,19.463 34.465,19.478 34.551,19.392 34.521,19.375 34.6,19.36 34.715,19.236 34.68,19.159 
		34.639,19.178 34.629,19.149 34.727,19.011 	"/>
	<polygon style="fill:#010101;" points="40.639,18.357 41.186,18.324 41.373,18.392 41.41,18.598 41.324,18.714 41.205,18.672 
		40.875,18.626 40.416,18.756 40.4,18.821 40.551,18.836 40.6,19.004 40.709,19.006 40.791,19.153 40.916,19.316 40.994,19.407 
		40.939,19.64 40.533,20.076 40.473,20.214 40.209,20.44 39.898,20.611 39.861,20.714 39.631,20.91 39.393,21.011 39.27,20.93 
		39.152,20.93 39.127,20.87 38.965,20.916 38.896,21.044 38.912,21.195 38.943,21.338 38.984,21.431 38.805,21.649 38.686,21.54 
		38.563,21.682 38.412,21.576 38.07,21.692 38.049,21.692 38.041,21.686 38.172,21.365 38.283,21.215 38.592,21.045 38.773,20.75 
		38.699,20.575 38.631,20.538 38.617,20.369 38.734,19.926 38.896,19.725 39,19.316 39.193,19.02 39.379,18.958 39.512,18.682 
		39.646,18.508 39.844,18.359 39.99,18.508 40.121,18.465 40.225,18.533 	"/>
	<path style="fill:#C15427;" d="M40.236,18.571c0.226-0.172,0.527-0.217,0.811-0.214l0.219,0.009l-0.049,0.12v0.153l-0.17-0.041
		l-0.645,0.118l-0.17-0.069L40.236,18.571z"/>
	<polygon style="fill:#FDD109;" points="39.756,18.445 39.879,18.399 39.922,18.575 39.758,18.764 39.604,19.045 39.482,19.059 
		39.414,18.972 39.561,18.682 	"/>
	<polygon style="fill:#C15427;" points="41.293,18.4 41.342,18.411 41.373,18.6 41.299,18.673 41.252,18.62 	"/>
	<polygon style="fill:#FDD109;" points="40.02,18.534 40.141,18.512 40.18,18.678 39.928,18.965 39.77,19.19 39.713,19.181 
		39.637,19.06 39.789,18.786 	"/>
	<polygon style="fill:#FDD109;" points="40.07,18.843 40.25,18.682 40.373,18.781 40.238,19.002 39.975,19.295 39.848,19.331 
		39.801,19.21 	"/>
	<polygon style="fill:#FDD109;" points="40.361,18.9 40.469,18.841 40.564,18.962 40.502,19.129 40.172,19.474 40.078,19.501 
		40.082,19.385 40.01,19.316 40.238,19.06 	"/>
	<polygon style="fill:#FDD109;" points="39.283,19.004 39.447,19.086 39.223,19.392 39.07,19.841 39.029,19.841 38.934,19.723 
		39.117,19.178 	"/>
	<polygon style="fill:#FDD109;" points="40.549,19.128 40.619,19.037 40.746,19.095 40.723,19.236 40.527,19.484 40.314,19.662 
		40.303,19.577 40.203,19.499 	"/>
	<polygon style="fill:#FDD109;" points="39.52,19.086 39.672,19.19 39.477,19.432 39.256,19.874 39.223,19.961 39.182,19.976 
		39.105,19.85 39.322,19.287 	"/>
	<polygon style="fill:#FDD109;" points="40.783,19.19 40.873,19.289 40.775,19.504 40.467,19.792 40.307,19.714 40.533,19.534 	"/>
	<polygon style="fill:#FDD109;" points="39.699,19.219 39.809,19.311 39.721,19.503 39.4,20.033 39.27,19.957 39.434,19.604 
		39.588,19.316 	"/>
	<polygon style="fill:#FDD109;" points="39.896,19.345 40.045,19.402 39.961,19.644 39.613,20.138 39.529,20.103 39.408,20.152 
		39.424,20.068 39.666,19.681 39.816,19.421 	"/>
	<polygon style="fill:#FDD109;" points="40.906,19.353 40.961,19.459 40.857,19.705 40.525,20.036 40.438,19.958 40.477,19.832 
		40.688,19.663 	"/>
	<polygon style="fill:#FDD109;" points="40.119,19.528 40.271,19.597 40.244,19.732 40.053,19.976 39.777,20.282 39.693,20.354 
		39.629,20.333 39.637,20.167 39.865,19.855 40.039,19.583 	"/>
	<polygon style="fill:#FDD109;" points="40.305,19.755 40.438,19.822 40.385,19.976 40.168,20.201 39.77,20.459 39.721,20.383 
		40.197,19.863 	"/>
	<polygon style="fill:#FDD109;" points="38.824,19.822 38.92,19.766 38.992,19.855 38.848,20.093 38.709,20.535 38.646,20.445 
		38.727,20.083 	"/>
	<polygon style="fill:#FDD109;" points="39.016,19.889 39.102,19.892 39.139,20.01 38.961,20.31 38.826,20.688 38.744,20.683 
		38.756,20.48 38.879,20.109 	"/>
	<polygon style="fill:#FDD109;" points="39.234,19.997 39.373,20.095 39.293,20.319 39.059,20.706 38.932,20.816 38.863,20.732 
		38.977,20.366 39.127,20.084 	"/>
	<polygon style="fill:#FDD109;" points="40.416,19.993 40.494,20.083 40.408,20.229 40.189,20.411 39.887,20.58 39.764,20.524 
		39.766,20.499 40.111,20.302 	"/>
	<polygon style="fill:#FDD109;" points="39.496,20.145 39.607,20.209 39.586,20.339 39.385,20.595 39.137,20.819 38.998,20.881 
		38.953,20.851 39.133,20.669 39.342,20.304 	"/>
	<polygon style="fill:#FDD109;" points="39.18,20.836 39.611,20.373 39.721,20.443 39.699,20.555 39.473,20.753 39.24,20.899 
		39.17,20.899 	"/>
	<polygon style="fill:#FDD109;" points="39.744,20.568 39.859,20.628 39.736,20.788 39.455,20.962 39.318,20.943 39.326,20.899 
		39.525,20.758 39.703,20.605 	"/>
	<polygon style="fill:#C15427;" points="38.656,21.012 38.826,20.743 38.85,20.83 38.922,20.861 38.924,20.905 38.863,21.124 
		38.904,21.345 38.945,21.41 38.785,21.588 38.705,21.49 38.734,21.325 38.705,21.325 38.666,21.504 38.572,21.583 38.537,21.631 
		38.439,21.549 38.455,21.421 38.418,21.407 38.412,21.504 38.35,21.573 38.109,21.656 38.188,21.475 38.26,21.274 38.504,21.166 	
		"/>
</g>
</svg>
