<?xml version="1.0" encoding="iso-8859-1"?>
<!-- Generator: Adobe Illustrator 19.2.0, SVG Export Plug-In . SVG Version: 6.00 Build 0)  -->
<svg version="1.1" id="Layer_1" xmlns="http://www.w3.org/2000/svg" xmlns:xlink="http://www.w3.org/1999/xlink" x="0px" y="0px"
	 viewBox="0 0 49 32" style="enable-background:new 0 0 49 32;" xml:space="preserve">
<g>
	<rect style="fill:#CE2028;" width="49" height="32"/>
	<polygon style="fill:#077B5F;" points="4.084,4.001 4.084,28 24.5,15.999 	"/>
	<polygon style="fill:#FBD118;" points="44.917,4.001 4.084,4.001 24.5,15.999 	"/>
	<polygon style="fill:#FBD118;" points="4.084,28 44.917,28 24.5,15.999 	"/>
	<polygon style="fill:#077B5F;" points="24.5,15.999 44.917,28 44.917,4.001 	"/>
	<ellipse style="fill:#CE2028;" cx="24.5" cy="15.999" rx="4.083" ry="4"/>
	<polygon style="fill:#FBD118;" points="24.5,12.568 25.308,15.002 27.924,15.002 25.809,16.508 26.616,18.946 24.5,17.439 
		22.385,18.946 23.193,16.508 21.077,15.002 23.693,15.002 	"/>
	<path style="fill:#FBD118;" d="M5.952,13.344c0.325,1.266-0.459,2.586,0,3.842c0.336,0.901,1.323,1.309,2.222,1.47
		c-0.276-0.412-0.48-0.848-0.592-1.309c-0.102-0.43-0.132-0.87-0.092-1.299c0.419,0.17,0.794,0.429,1.133,0.739
		c0.356,0.33,0.694,0.708,0.918,1.149c0.354-0.938,0.294-2.167-0.521-2.865C8.144,14.252,6.839,14.133,5.952,13.344z"/>
	<path style="fill:#CE2028;" d="M7.582,17.348c0.377,0.35,0.775,0.688,1.253,0.891c-0.011-0.491-0.091-0.981-0.212-1.451
		c-0.338-0.31-0.714-0.569-1.133-0.739C7.45,16.478,7.48,16.918,7.582,17.348z"/>
	<polygon style="fill:#FBD118;" points="13.559,3.698 14.701,2.884 15.843,3.698 15.405,2.382 16.549,1.568 15.135,1.568 
		14.701,0.253 14.265,1.568 12.852,1.568 13.994,2.382 	"/>
	<polygon style="fill:#FBD118;" points="23.358,3.698 24.501,2.884 25.642,3.698 25.206,2.382 26.348,1.568 24.935,1.568 
		24.501,0.253 24.065,1.568 22.652,1.568 23.792,2.382 	"/>
	<polygon style="fill:#FBD118;" points="33.159,3.698 34.302,2.884 35.443,3.698 35.006,2.382 36.147,1.568 34.735,1.568 
		34.302,0.253 33.864,1.568 32.451,1.568 33.593,2.382 	"/>
	<polygon style="fill:#FBD118;" points="13.559,31.733 14.701,30.92 15.843,31.733 15.405,30.419 16.549,29.605 15.135,29.605 
		14.701,28.289 14.265,29.605 12.852,29.605 13.994,30.419 	"/>
	<polygon style="fill:#FBD118;" points="23.358,31.733 24.501,30.92 25.642,31.733 25.206,30.419 26.348,29.605 24.935,29.605 
		24.501,28.289 24.065,29.605 22.652,29.605 23.792,30.419 	"/>
	<polygon style="fill:#FBD118;" points="33.159,31.733 34.302,30.92 35.443,31.733 35.006,30.419 36.147,29.605 34.735,29.605 
		34.302,28.289 33.864,29.605 32.451,29.605 33.593,30.419 	"/>
</g>
</svg>
