<?xml version="1.0" encoding="iso-8859-1"?>
<!-- Generator: Adobe Illustrator 19.2.0, SVG Export Plug-In . SVG Version: 6.00 Build 0)  -->
<svg version="1.1" id="Layer_1" xmlns="http://www.w3.org/2000/svg" xmlns:xlink="http://www.w3.org/1999/xlink" x="0px" y="0px"
	 viewBox="0 0 49 32" style="enable-background:new 0 0 49 32;" xml:space="preserve">
<g>
	<rect y="21.331" style="fill:#FCE100;" width="49" height="10.669"/>
	<rect y="10.665" style="fill:#010101;" width="49" height="10.666"/>
	<rect style="fill:#037168;" width="49" height="10.665"/>
	<rect y="10.106" style="fill:#FFFFFF;" width="49" height="1.12"/>
	<rect y="20.771" style="fill:#FFFFFF;" width="49" height="1.121"/>
	<polygon style="fill:#D0202D;" points="0,32 0,0 21.342,16 	"/>
	<polygon style="fill:#FCE100;" points="7.182,10.165 8.66,14.62 13.445,14.62 9.574,17.377 11.055,21.831 7.182,19.081 
		3.311,21.831 4.789,17.377 0.92,14.62 5.703,14.62 	"/>
	<polygon style="fill:#FFFFFF;" points="12.969,10.646 12.986,10.646 12.986,10.664 	"/>
	<path style="fill:#010101;" d="M8.26,14.254l0.035-0.142l0.467-0.399l0.271,0.212l0.057,0.039l0.061-0.047
		c0.361-0.298,0.721-0.595,1.078-0.895l0.231-0.186l0.104,0.034l0.16-0.045c0.756-0.71,1.512-1.417,2.264-2.127v-0.034l-0.018-0.017
		h-0.025l-0.223,0.15c-0.73,0.507-1.459,1.011-2.188,1.511l-0.063,0.038l-0.045-0.027l0.037-0.127l-0.066-0.115l-0.141-0.006
		l-0.139,0.117L9.859,12.07l-0.139-0.137l-0.023-0.008l-0.035,0.008l-0.014,0.17l-0.016,0.233L9.029,12.89L8.549,12.87
		c-0.223,0.208-0.439,0.416-0.66,0.625l-0.063,0.068L7.791,13.67l-0.082-0.11l-0.063,0.031l-0.367,0.338l-0.045,0.009
		c-0.375-0.419-0.758-0.836-1.133-1.257l0.061-0.208l-0.022-0.055c-0.236-0.25-0.475-0.502-0.711-0.756L5.32,11.613l-0.461,0.035
		l-0.244,0.307l-0.049,0.18l-0.111,0.033L4.066,12.14l-0.121-0.006l-0.279,0.056l-0.033,0.024c-0.557,0.776-1.113,1.544-1.668,2.321
		l-0.049,0.075l0.041,0.059c0.309,0.364,0.615,0.726,0.924,1.089h0.059c0.641-0.793,1.277-1.583,1.918-2.375l0.047-0.083
		l0.053-0.586l0.293,0.321l0.07,0.067l0.187,0.016l0.209-0.039c0.236,0.254,0.465,0.507,0.701,0.764l0.416,0.454l-0.162,0.149
		l-0.008,0.06l0.156,0.166l0.057,0.032l0.176-0.115l0.033,0.04l-0.205,0.143l-0.26-0.316l-0.018-0.09l-0.051,0.007l-0.443,0.359
		c-0.236,0.031-0.477,0.067-0.717,0.107c-0.221,0.039-0.447,0.08-0.662,0.143l-0.182,0.09l-0.346,0.344l-0.076,0.303
		c-0.07,0.286-0.137,0.576-0.207,0.864l-0.127,0.017L3.766,16.63l-0.045,0.452l0.022,0.07h0.043l-0.031,0.126l-0.09,0.01
		l-0.641,0.626l-0.471,0.142c-0.32,0.279-0.643,0.558-0.965,0.833l-0.205,0.184v0.023l0.053,0.067
		c0.219,0.251,0.436,0.503,0.654,0.753l0.357,0.006c0.32-0.385,0.646-0.765,0.975-1.149c1.025,0.002,2.051,0,3.074,0l0.301,0.178
		l0.617,0.054l0.539-0.255l0.135-0.058c0.303-0.118,0.635-0.148,0.957-0.152c0.541,0,1.082,0.079,1.603,0.205l0.156,0.023
		c0.322,0.357,0.643,0.717,0.963,1.073l0.068,0.007l0.227-0.141l0.076-0.238l-0.012-0.059c-0.311-0.347-0.621-0.695-0.932-1.048
		l-0.041-0.1c-0.293-0.939-0.584-1.879-0.877-2.822L10.256,15.4l-0.303-0.316l-0.076-0.05l-0.41-0.146
		c-0.424-0.117-0.867-0.149-1.305-0.127l-0.164,0.01l-0.102-0.113l0.225-0.243L8.26,14.254z M7.533,14.281L7.49,14.234l0.289-0.256
		l0.021-0.037l0.041,0.081L7.533,14.281z"/>
	<path style="fill:#FFFFFF;" d="M5.324,14.922c0.227-0.038,0.449-0.073,0.678-0.1L5.9,14.911l-0.021,0.1
		c-0.305,0.255-0.619,0.504-0.924,0.757l-0.549,0.441c0.088-0.376,0.18-0.754,0.266-1.128L5.324,14.922z"/>
	<path style="fill:#FFFFFF;" d="M8.063,14.84c0.428-0.03,0.867-0.008,1.289,0.092l0.475,0.159l0.057,0.041
		c0.17,0.774,0.34,1.549,0.508,2.325c-0.197-0.218-0.393-0.442-0.59-0.657C9.223,16.143,8.641,15.493,8.063,14.84z"/>
	<path style="fill:#FFFFFF;" d="M7.299,15.147l0.15-0.125c0.539,0.598,1.074,1.198,1.613,1.8c0.324,0.361,0.65,0.728,0.978,1.091
		c-0.299-0.039-0.6-0.054-0.898-0.059c-0.551,0.007-1.106,0.073-1.623,0.256l-0.254,0.098l0.004-0.34l0.002-0.484l0.594,0.053
		l0.152-0.049L8.043,17.3c0.019-0.238,0.025-0.48,0.033-0.723l-0.043-0.05c-0.25-0.024-0.504-0.064-0.752-0.104
		c-0.002-0.403,0.002-0.804,0.004-1.209L7.299,15.147z"/>
	<path style="fill:#FFFFFF;" d="M4.277,15.438l0.303-0.296c-0.09,0.383-0.178,0.765-0.27,1.146l-0.305,0.246
		c0.084-0.345,0.168-0.692,0.25-1.039L4.277,15.438z"/>
	<path style="fill:#FFFFFF;" d="M9.959,15.199l0.205,0.214l0.045,0.055c0.283,0.916,0.568,1.829,0.854,2.747
		c-0.191-0.217-0.385-0.431-0.574-0.646l-0.02-0.033C10.299,16.753,10.131,15.979,9.959,15.199z"/>
	<path style="fill:#FFFFFF;" d="M6.738,15.611l0.488-0.402l-0.004,0.366c-0.002,0.276-0.002,0.558-0.004,0.834
		c-0.227-0.036-0.453-0.09-0.674-0.158l-0.293-0.137l-0.086-0.094l0.053-0.222l0.344-0.157l0.006-0.052l-0.182-0.258l0.014-0.07
		l0.279,0.341L6.738,15.611z"/>
	<path style="fill:#FFFFFF;" d="M5.893,15.523l0.23-0.183l0.002,0.019c-0.283,0.242-0.561,0.491-0.838,0.742l-0.043,0.101
		l-0.115,0.105l-0.084-0.054l-0.041,0.017c-0.383,0.333-0.766,0.666-1.148,1l-0.027,0.006l0.055-0.209
		c0.373-0.309,0.748-0.611,1.121-0.916l0.053-0.053l-0.002-0.071l0.119,0.051C5.412,15.893,5.65,15.709,5.893,15.523z"/>
	<path style="fill:#FFFFFF;" d="M5.414,16.725l0.092-0.133c0.381,0.23,0.775,0.432,1.188,0.601l0.517,0.179
		c0,0.274-0.004,0.553-0.006,0.828l-0.357-0.116c-0.543-0.145-1.111-0.188-1.672-0.19L5.08,17.577l0.447-0.474l0.068-0.103
		L5.414,16.725z"/>
	<path style="fill:#FFFFFF;" d="M5.072,16.938l0.119-0.081l0.105,0.134l-0.203,0.242h-0.24L4.391,17.64l-0.006,0.058l0.184,0.162
		l0.023,0.05H4.549l-0.502,0.044l0.012-0.095c0.283-0.245,0.563-0.496,0.848-0.735l0.182,0.013l0.014-0.063l-0.096-0.05
		L5.072,16.938z"/>
	<path style="fill:#FFFFFF;" d="M8.486,17.967l0.592-0.035h0.211c0.277,0.002,0.553,0.028,0.824,0.061
		c0.207,0.234,0.416,0.465,0.621,0.696c-0.471-0.116-0.949-0.2-1.434-0.217c-0.357-0.015-0.719,0-1.066,0.094l-0.318,0.123
		L7.34,18.26C7.705,18.101,8.096,18.013,8.486,17.967z"/>
	<path style="fill:#FFFFFF;" d="M5.191,17.967c0.389,0,0.773,0.024,1.156,0.083v0.006l0.086,0.01
		c0.248,0.041,0.492,0.107,0.727,0.194c-0.228,0.116-0.449,0.255-0.623,0.438l-0.631,0.001c-0.647,0-1.291,0-1.936,0l-0.484-0.003
		l0.396-0.477l0.149-0.217l0.096,0.015l0.49-0.042l0.219,0.58l0.049,0.121h0.055l0.361-0.247l0.012-0.061L5.191,17.967z"/>
	<path style="fill:#FFFFFF;" d="M7.213,18.317l0.053-0.015c0.221,0.104,0.43,0.236,0.588,0.423l-0.564,0.221
		c-0.244,0.026-0.508-0.04-0.684-0.212C6.773,18.556,6.992,18.43,7.213,18.317z"/>
</g>
</svg>
