<?xml version="1.0" encoding="iso-8859-1"?>
<!-- Generator: Adobe Illustrator 19.2.0, SVG Export Plug-In . SVG Version: 6.00 Build 0)  -->
<svg version="1.1" id="Layer_1" xmlns="http://www.w3.org/2000/svg" xmlns:xlink="http://www.w3.org/1999/xlink" x="0px" y="0px"
	 viewBox="0 0 49 32" style="enable-background:new 0 0 49 32;" xml:space="preserve">
<g>
	<rect style="fill:#124B8E;" width="49" height="32"/>
	<polygon style="fill:#FFFFFF;" points="35.033,4.95 36.346,4.95 36.75,3.73 37.156,4.95 38.469,4.95 37.408,5.704 37.81,6.928 
		36.75,6.175 35.689,6.928 36.096,5.704 	"/>
	<polygon style="fill:#E21D38;" points="35.617,5.137 36.482,5.137 36.75,4.328 37.018,5.137 37.887,5.137 37.185,5.636 
		37.451,6.445 36.75,5.946 36.049,6.445 36.316,5.636 	"/>
	<polygon style="fill:#FFFFFF;" points="28.912,13.596 30.225,13.596 30.629,12.374 31.035,13.596 32.348,13.596 31.289,14.351 
		31.691,15.573 30.629,14.818 29.57,15.573 29.975,14.351 	"/>
	<polygon style="fill:#E21D38;" points="29.496,13.783 30.363,13.783 30.629,12.975 30.898,13.783 31.768,13.783 31.064,14.282 
		31.33,15.091 30.629,14.593 29.93,15.091 30.197,14.282 	"/>
	<polygon style="fill:#FFFFFF;" points="40.664,11.523 41.832,11.523 42.193,10.439 42.555,11.523 43.723,11.523 42.777,12.196 
		43.137,13.284 42.193,12.611 41.248,13.284 41.609,12.196 	"/>
	<polygon style="fill:#E21D38;" points="41.182,11.691 41.953,11.691 42.193,10.973 42.43,11.691 43.203,11.691 42.578,12.135 
		42.818,12.856 42.193,12.408 41.568,12.856 41.805,12.135 	"/>
	<polygon style="fill:#FFFFFF;" points="34.865,26.221 36.305,26.221 36.75,24.876 37.195,26.221 38.635,26.221 37.469,27.053 
		37.914,28.398 36.75,27.564 35.584,28.398 36.029,27.053 	"/>
	<polygon style="fill:#E21D38;" points="35.504,26.426 36.459,26.426 36.75,25.537 37.045,26.426 37.996,26.426 37.229,26.975 
		37.523,27.865 36.75,27.317 35.982,27.865 36.277,26.975 	"/>
	<rect style="fill:#124B8E;" width="24.5" height="16"/>
	<polygon style="fill:#FFFFFF;" points="24.5,5.601 14.699,5.601 14.699,0 9.801,0 9.801,5.601 0,5.601 0,10.402 9.801,10.402 
		9.801,16 14.699,16 14.699,10.402 24.5,10.402 	"/>
	<polygon style="fill:#FFFFFF;" points="24.5,14.159 2.813,0 0,0 0,1.852 21.668,16 24.5,16 	"/>
	<polygon style="fill:#FFFFFF;" points="0,14.159 21.689,0 24.5,0 24.5,1.852 2.834,16 0,16 	"/>
	<polygon style="fill:#E21D38;" points="24.5,6.6 13.682,6.6 13.682,0 10.822,0 10.822,6.6 0,6.6 0,9.401 10.822,9.401 10.822,16 
		13.682,16 13.682,9.401 24.5,9.401 	"/>
	<polygon style="fill:#E21D38;" points="24.5,15.952 24.5,14.69 17.916,10.402 15.977,10.402 	"/>
	<polygon style="fill:#E21D38;" points="24.5,0 22.566,0 14.699,5.123 14.699,5.601 15.908,5.601 24.5,0.003 	"/>
	<polygon style="fill:#E21D38;" points="8.527,10.402 0,15.956 0,16 1.871,16 9.801,10.834 9.801,10.402 	"/>
	<polygon style="fill:#E21D38;" points="0,0.011 0,1.276 6.641,5.601 8.58,5.601 	"/>
</g>
</svg>
