<?xml version="1.0" encoding="iso-8859-1"?>
<!-- Generator: Adobe Illustrator 19.2.0, SVG Export Plug-In . SVG Version: 6.00 Build 0)  -->
<svg version="1.1" id="Layer_1" xmlns="http://www.w3.org/2000/svg" xmlns:xlink="http://www.w3.org/1999/xlink" x="0px" y="0px"
	 viewBox="0 0 49 32" style="enable-background:new 0 0 49 32;" xml:space="preserve">
<g>
	<rect style="fill:#1085C7;" width="49" height="16"/>
	<rect y="16" style="fill:#F9D615;" width="49" height="8"/>
	<rect y="24" style="fill:#087D5A;" width="49" height="8"/>
	<path style="fill:#E9B021;" d="M41.314,7.519c-1.152,0-2.088,0.944-2.088,2.106c0,1.164,0.936,2.109,2.088,2.109
		c1.156,0,2.09-0.945,2.09-2.109C43.404,8.463,42.471,7.519,41.314,7.519z M44.611,10.024l2.592-0.443l-2.6-0.403L46.99,8.09
		l-2.617,0.269l2.018-1.656l-2.457,0.926l1.51-2.108L43.318,7.03l0.9-2.418l-1.654,1.999l0.229-2.565L41.725,6.4l-0.455-2.541
		l-0.412,2.544l-1.109-2.334l0.275,2.563l-1.688-1.978l0.939,2.408l-2.152-1.481l1.545,2.084l-2.471-0.88l2.043,1.621l-2.621-0.228
		l2.404,1.049l-2.592,0.446l2.598,0.402l-2.385,1.088l2.615-0.268l-2.014,1.651l2.453-0.921l-1.512,2.107l2.133-1.512l-0.906,2.419
		l1.656-2.004l-0.232,2.568l1.072-2.354l0.453,2.539l0.412-2.546l1.109,2.337l-0.275-2.561l1.69,1.978l-0.94-2.41l2.15,1.48
		l-1.545-2.086l2.471,0.886l-2.041-1.623l2.617,0.226L44.611,10.024z M41.314,11.986c-1.328,0-2.41-1.055-2.41-2.361
		c0-1.303,1.082-2.36,2.41-2.36c1.334,0,2.412,1.058,2.412,2.36C43.726,10.932,42.648,11.986,41.314,11.986z"/>
</g>
</svg>
