<?xml version="1.0" encoding="iso-8859-1"?>
<!-- Generator: Adobe Illustrator 19.2.0, SVG Export Plug-In . SVG Version: 6.00 Build 0)  -->
<svg version="1.1" id="Layer_1" xmlns="http://www.w3.org/2000/svg" xmlns:xlink="http://www.w3.org/1999/xlink" x="0px" y="0px"
	 viewBox="0 0 49 32" style="enable-background:new 0 0 49 32;" xml:space="preserve">
<g>
	<g>
		<rect x="0.05" y="0.05" style="fill:#EE2F43;" width="48.9" height="15.95"/>
		<rect x="0.05" y="16" style="fill:#FFFFFF;" width="48.9" height="15.951"/>
		<path style="fill:#FFFFFF;" d="M7.399,8.026c0-2.526,1.523-4.701,3.718-5.701c-0.433-0.097-0.878-0.15-1.339-0.15
			c-3.303,0-5.982,2.62-5.982,5.852c0,3.231,2.68,5.853,5.982,5.853c0.461,0,0.906-0.056,1.339-0.153
			C8.923,12.725,7.399,10.549,7.399,8.026z"/>
		<polygon style="fill:#FFFFFF;" points="13.91,3.294 14.255,4.342 15.384,4.342 14.472,4.99 14.817,6.035 13.91,5.388 
			12.997,6.035 13.345,4.99 12.434,4.342 13.561,4.342 		"/>
		<polygon style="fill:#FFFFFF;" points="17.233,5.727 17.581,6.775 18.708,6.775 17.796,7.423 18.145,8.472 17.233,7.822 
			16.322,8.472 16.67,7.423 15.761,6.775 16.886,6.775 		"/>
		<polygon style="fill:#FFFFFF;" points="10.527,5.727 10.874,6.775 11.999,6.775 11.088,7.423 11.435,8.472 10.527,7.822 
			9.614,8.472 9.964,7.423 9.052,6.775 10.177,6.775 		"/>
		<polygon style="fill:#FFFFFF;" points="15.96,9.602 16.308,10.65 17.438,10.65 16.524,11.298 16.872,12.348 15.96,11.696 
			15.052,12.348 15.399,11.298 14.487,10.65 15.613,10.65 		"/>
		<polygon style="fill:#FFFFFF;" points="11.826,9.602 12.173,10.65 13.302,10.65 12.391,11.298 12.737,12.348 11.826,11.696 
			10.916,12.348 11.265,11.298 10.352,10.65 11.478,10.65 		"/>
	</g>
	<path d="M49,32H0V0h49V32z M0.1,31.902h48.799V0.099H0.1V31.902z"/>
</g>
</svg>
