<?xml version="1.0" encoding="iso-8859-1"?>
<!-- Generator: Adobe Illustrator 19.2.0, SVG Export Plug-In . SVG Version: 6.00 Build 0)  -->
<svg version="1.1" id="Layer_1" xmlns="http://www.w3.org/2000/svg" xmlns:xlink="http://www.w3.org/1999/xlink" x="0px" y="0px"
	 viewBox="0 0 49 32" style="enable-background:new 0 0 49 32;" xml:space="preserve">
<g>
	<rect style="fill:#FECF0A;" width="49" height="32"/>
	<rect x="18.373" y="1.999" style="fill:#9D203F;" width="28.584" height="28.003"/>
	<rect x="2.039" y="1.999" style="fill:#0C733B;" width="7.148" height="28.003"/>
	<rect x="9.186" y="1.999" style="fill:#F47421;" width="7.144" height="28.003"/>
	<path style="fill:#FDCE07;" d="M19.028,2.728l0.124-0.089l0.576,0.536c0.177-0.202,0.468-0.23,0.72-0.202l0.409,0.222
		c0.271,0.418,0.464,0.875,0.679,1.319l0.188,0.392l0.016,0.082l-0.646-0.102c-0.37-0.034-0.746-0.06-1.104-0.169
		c-0.26-0.09-0.539-0.239-0.64-0.509l0.004-0.478l0.05-0.152l0.035-0.094l0.083-0.15C19.461,3.066,19.215,2.908,19.028,2.728z"/>
	<path style="fill:#FDCE07;" d="M46.304,2.728L46.18,2.64l-0.576,0.536c-0.177-0.202-0.471-0.23-0.722-0.202l-0.407,0.222
		c-0.272,0.418-0.466,0.875-0.679,1.319l-0.19,0.392l-0.014,0.082l0.645-0.102c0.372-0.034,0.748-0.06,1.104-0.169
		c0.262-0.09,0.541-0.239,0.642-0.509L45.977,3.73l-0.049-0.152l-0.033-0.094l-0.087-0.15C45.871,3.066,46.115,2.908,46.304,2.728z"
		/>
	<path style="fill:#FDCE07;" d="M19.028,29.27l0.124,0.09l0.576-0.531c0.177,0.197,0.468,0.226,0.72,0.197l0.409-0.219
		c0.271-0.418,0.464-0.878,0.679-1.321l0.188-0.389l0.016-0.086l-0.646,0.107c-0.37,0.028-0.746,0.058-1.104,0.168
		c-0.26,0.09-0.539,0.238-0.64,0.507l0.004,0.479l0.05,0.152l0.035,0.091l0.083,0.151C19.461,28.934,19.215,29.092,19.028,29.27z"/>
	<path style="fill:#FDCE07;" d="M46.304,29.27l-0.124,0.09l-0.576-0.531c-0.177,0.197-0.471,0.226-0.722,0.197l-0.407-0.219
		c-0.272-0.418-0.466-0.878-0.679-1.321l-0.19-0.389l-0.014-0.086l0.645,0.107c0.372,0.028,0.748,0.058,1.104,0.168
		c0.262,0.09,0.541,0.238,0.642,0.507l-0.005,0.479l-0.049,0.152l-0.033,0.091l-0.087,0.151
		C45.871,28.934,46.115,29.092,46.304,29.27z"/>
	<path style="fill:#FDCE07;" d="M25.202,9.23l0.394-0.572l-0.031,0.146c-0.132,0.66-0.164,1.331-0.197,1.995l-0.027,0.587
		c-0.031,0.29,0.006,0.591-0.035,0.881c-0.012,0.952-0.012,1.903-0.008,2.853l0.021,0.629l0.014,0.548
		c-0.384,0.17-0.822,0.145-1.226,0.045l0.027-0.108l0.036-0.478c0.033-0.237,0.029-0.479,0.064-0.714l0.055-0.576l0.036-0.457
		l0.053-0.526c0.06-0.432,0.095-0.865,0.165-1.289l0.04-0.33l0.063-0.376l0.051-0.303l0.046-0.253l0.061-0.282l0.091-0.428
		l0.14-0.503l0.088-0.281l0.044-0.099L25.202,9.23z"/>
	<path style="fill:#FDCE07;" d="M26.923,12.822c0.446,0.135,0.915,0.159,1.379,0.184c0.24,0.008,0.481,0.023,0.72,0.008l0.392-0.049
		l0.444,0.384l0.126,0.332l0.01,0.106l-0.382-0.128c-0.297-0.05-0.6-0.01-0.887,0.066v-0.346l-0.059-0.039
		c-0.366,0.088-0.754,0.154-1.127,0.059C27.252,13.328,27.006,13.102,26.923,12.822z"/>
	<path style="fill:#FDCE07;" d="M23.16,15.965l0.555-0.229l0.223,0.089l-0.006,0.156l-0.101,0.126l0.062,0.127
		c0.202,0.197,0.493,0.268,0.772,0.276c0.314,0.005,0.636-0.051,0.901-0.219l-0.065-0.328c0.181-0.214,0.537-0.044,0.594,0.191
		l0.004,0.186c-0.142,0.264-0.444,0.372-0.722,0.429c-0.507,0.094-1.034,0.074-1.528-0.061c-0.231-0.069-0.479-0.174-0.625-0.371
		L23.16,15.965z"/>
	<path style="fill:#FDCE07;" d="M25.881,16.906l0.609,0.092c0.266,0.153,0.407,0.436,0.531,0.697l0.204,0.485l0.101,0.223
		l0.349,0.516c0.263,0.262,0.513,0.545,0.689,0.871l0.056,0.456l-0.035,0.063l-0.496,0.263c-0.336-0.02-0.613-0.231-0.846-0.452
		l-0.462-0.567l-0.11-0.1l-0.025,0.214L26.4,19.801l-0.281,0.043l-0.432-0.221v-0.039l0.219-0.266l0.112-0.179l-0.046-0.199
		l-0.047-0.158l-0.305-0.504l0.163-0.172l-0.153-0.229l0.138-0.094l-0.008-0.159l-0.108-0.128l0.142-0.092l-0.066-0.321l0.055-0.007
		L25.881,16.906z"/>
	<path style="fill:#FDCE07;" d="M23.598,17.012l0.431-0.028c0.218,0.038,0.44,0.08,0.664,0.072l0.646-0.077l0.2,0.064l-0.006,0.129
		l-0.528,0.158c-0.308,0.035-0.618,0.035-0.927-0.005l-0.483-0.19L23.598,17.012z"/>
	<path style="fill:#FDCE07;" d="M23.641,17.536l0.2-0.052c0.227,0.014,0.446,0.083,0.671,0.077c0.25,0.004,0.498-0.081,0.751-0.067
		l0.201,0.126l-0.221,0.138c-0.328,0.099-0.673,0.087-1.007,0.063l-0.59-0.166L23.641,17.536z"/>
	<path style="fill:#FDCE07;" d="M24.331,18.017c0.314,0.034,0.617-0.054,0.93-0.082l0.234,0.042l-0.047,0.006l0.008,0.074
		l-0.578,0.223c-0.281,0.054-0.574,0.038-0.854-0.031l-0.262-0.153l-0.016-0.01l0.037-0.099L24.331,18.017z"/>
	<path style="fill:#FDCE07;" d="M25.229,18.354l0.275-0.014v0.094l-0.242,0.15c-0.33,0.113-0.686,0.144-1.034,0.125l-0.462-0.103
		l-0.046-0.131c0.254-0.057,0.508-0.02,0.766-0.028C24.736,18.455,24.983,18.403,25.229,18.354z"/>
	<path style="fill:#FDCE07;" d="M36.303,18.565c0.375-0.152,0.797-0.267,1.205-0.188c0.227,0.042,0.431,0.173,0.555,0.36l0.12,0.271
		l0.027,0.109l-0.012,0.219l-0.041,0.251c-0.077,0.312-0.173,0.614-0.289,0.916l-0.023,0.074l-0.054,0.201l0.388-0.183l0.64-0.059
		c-0.146,0.384-0.514,0.626-0.865,0.819l-0.015,0.203l-0.049,0.275l-0.104,0.355l-0.053,0.167c-0.093,0.289-0.2,0.57-0.301,0.855
		c-0.531,0-1.064,0-1.598,0l0.229-0.506l-0.419,0.506h-0.561l0.496-0.6l-0.067-0.01c-0.222,0.24-0.474,0.459-0.776,0.592
		l-0.266,0.06l0.01-0.18l0.32-0.579c0.197-0.164,0.476-0.186,0.72-0.139l0.543,0.162l0.031-0.096l0.077-0.281l0.022-0.078
		l0.075-0.305l0.031-0.174l-0.056-0.632l-0.313-0.399c-0.216-0.226-0.444-0.457-0.584-0.738l-0.041-0.097l0.061-0.531
		C35.616,18.909,35.952,18.713,36.303,18.565z"/>
	<path style="fill:#FDCE07;" d="M23.56,18.881l0.203-0.078l0.285,0.059l0.175,0.215l0.057,0.068l0.036,0.002l0.478-0.271
		l0.374,0.236l0.275-0.227l0.281-0.064l0.053,0.034l0.06,0.104l0.004,0.304l-0.329,0.19h-0.553l0.188,0.466l-0.101,0.378l0.442,0.3
		l-0.081-0.273L25.4,20.149l0.172-0.148c0.235,0,0.433,0.195,0.526,0.396l0.002,0.163l-0.435,0.248
		c-0.25,0.048-0.503,0.032-0.757,0.024l0.004,0.196l0.405,0.226l0.037,0.088l-0.448,0.07l0.006,0.331l-0.151,0.105l-0.181-0.262
		l-0.013-0.1l-0.082,0.036l-0.353-0.118l0.437-0.383l0.038-0.209c-0.279,0.033-0.566,0.046-0.84-0.02l-0.307-0.222v-0.196
		l0.012-0.059l0.149-0.246l0.411-0.029l0.082,0.335l-0.082,0.21l-0.063,0.026c0.248,0.059,0.508-0.145,0.508-0.393l-0.099-0.199
		l0.021-0.313l0.176-0.237c-0.281,0.044-0.599,0.083-0.862-0.061l-0.222-0.244v-0.176L23.56,18.881z"/>
	<path style="fill:#FDCE07;" d="M29.557,11.607l-0.124-0.078l-0.02,0.006L29.342,11.6l-0.031,0.156l0.02,0.148l0.103,0.216
		l0.128,0.079l0.018-0.006l0.073-0.064l0.031-0.158l-0.02-0.147L29.557,11.607z M41.253,20.387l-0.328-0.535l-0.002-0.533
		l0.109-0.512l0.054-0.129l0.051-0.127l0.27-0.596c0.122-0.277,0.248-0.557,0.349-0.844l0.159-0.527
		c0.053-0.248,0.09-0.502,0.051-0.756c-0.033-0.245-0.147-0.481-0.34-0.645L41.143,14.9c0.175-0.179,0.313-0.388,0.405-0.612
		c0.138-0.322,0.238-0.687,0.155-1.035l-0.012-0.054l-0.229-0.395c-0.269-0.311-0.672-0.479-1.069-0.594
		c-0.659-0.183-1.354-0.215-2.034-0.183l-0.255,0.048c-0.319,0.103-0.646,0.205-0.985,0.21l-0.537-0.175
		c-0.24-0.154-0.442-0.364-0.647-0.561H35.88l-0.042,0.292l-0.053,0.309l-0.264-0.297l-0.01-0.007l-0.051-0.137V11.48l0.165-0.281
		l0.063-0.02l-0.67-0.065l-0.448,0.387l0.021-0.168l0.171-0.387l0.374-0.404l0.493,0.128l0.504,0.341l0.041,0.012
		c0-0.272,0-0.546,0.006-0.817c0.196,0.236,0.364,0.494,0.551,0.739l0.082,0.078c0.036-0.227,0.095-0.451,0.097-0.677l0.058-0.008
		l0.165,0.259v0.23l-0.203,0.345l0.555-0.097l0.199-0.481l0.208,0.189c0.155,0.183,0.324,0.365,0.549,0.467
		c0.202,0.096,0.425,0.138,0.647,0.172l-0.228-0.497l0.029,0.03c0.502,0.245,0.979,0.554,1.532,0.669
		c0.229,0.045,0.494,0.045,0.681-0.104l0.183-0.391c0.002-0.257-0.32-0.454-0.553-0.319l-0.222,0.294l-0.008,0.306l-0.407-0.241
		c-0.876-0.522-1.802-0.979-2.785-1.276c-0.5-0.147-1.025-0.26-1.55-0.205c-0.409,0.082-0.813,0.205-1.172,0.411
		c-0.283,0.168-0.531,0.404-0.673,0.698c-0.108,0.268-0.14,0.561-0.093,0.842l0.058,0.275l-0.315,0.494l-0.012,0.024l0.012,0.362
		l0.099,0.28l0.071,0.115l0.037-0.004l0.104-0.286l0.409-0.497l0.231-0.04l0.415,0.281l0.444,0.191
		c0.325,0.089,0.653,0.143,0.983,0.196l0.504,0.009c0.438-0.009,0.881-0.022,1.309-0.116c0.341-0.1,0.669-0.233,1.015-0.317
		l0.59-0.017c0.374,0.116,0.688,0.414,0.809,0.786l0.029,0.229c0.004,0.227,0,0.45,0,0.68c-0.247-0.005-0.497-0.024-0.733-0.099
		l-0.462-0.181c-0.238-0.093-0.5-0.11-0.753-0.093c-0.87,0.019-1.708,0.269-2.554,0.426l-0.594,0.106
		c-0.613,0.15-1.259,0.136-1.874,0.264l-0.596,0.069l0.053-0.023l0.159-0.236l-0.144-0.381l-0.153,0.079l-0.061-0.006l-0.215-0.243
		l-0.218-0.459c-0.097-0.227-0.18-0.453-0.221-0.564l-0.104,0.915l-0.643-0.905l0.13,0.723l-0.006,0.05l-0.032,0.033h-0.008
		l-0.144-0.056l-0.21-0.117l-0.242-0.151l-0.025,0.6l-0.029,0.171l-0.025,0.017l-0.015-0.005l-0.113-0.115l-0.182-0.218
		l-0.243-0.302l0.031-0.026l0.421,0.524l0.097,0.099l0.004-0.016l0.016-0.085l0.018-0.279l0.01-0.398V13.36l0.031,0.019l0.474,0.291
		l0.128,0.049v-0.001l0.006-0.043l-0.076-0.479l-0.077-0.333l0.032-0.015l0.648,0.904l0.103-0.9l0.035-0.004
		c0,0,0.063,0.18,0.151,0.404c0.089,0.226,0.203,0.502,0.314,0.693l0.191,0.225l0.049,0.008l0.132-0.082l-0.02,0.004l0.179-1.58
		l-0.244-0.154l-0.342-0.306l-0.411-0.409l0.039,0.944l-0.346-0.309l0.018,0.193l-0.016,0.12l-0.067,0.062h-0.004l-0.153-0.066
		l-0.21-0.145l-0.225-0.179l0.023,0.285l-0.016,0.15l-0.07,0.085l-0.014,0.005l-0.174-0.072l-0.22-0.15l-0.185-0.144l0.123,0.212
		l0.189,0.442l-0.016,0.046l-0.042,0.021H30.89l-0.228-0.113l-0.303-0.234l-0.386-0.338l0.029-0.026l0.236,0.212l0.444,0.357
		l0.208,0.101h0.004l0.013-0.003l0.004-0.023l-0.184-0.423l-0.183-0.308l0.025-0.026l0.171,0.138l0.323,0.228l0.153,0.064
		l0.008-0.004l0.039-0.055l0.014-0.142l-0.029-0.33l-0.01-0.049l0.039,0.032l0.165,0.134l0.301,0.219l0.138,0.063h0.004l0.03-0.038
		l0.014-0.108l-0.023-0.237l-0.013-0.055l0.358,0.318l-0.037-0.956l0.035,0.036l0.281,0.283l0.506,0.471l0.224,0.133l0.058-0.516
		c-0.05-0.233-0.157-0.455-0.312-0.646v-0.025l0.471-0.363l0.128-0.402l0.023-0.094c-0.378,0.148-0.789,0.363-1.208,0.242
		l-0.116-0.292l-0.54-0.473L31.724,9.9l-0.006,0.427l-0.301,0.317l-0.307-0.375c-0.161-0.148-0.39-0.231-0.611-0.219l0.035,0.093
		v0.408l-0.46,0.345l-0.279-0.391l-0.486-0.102l-0.472,0.229c0.273,0.041,0.584,0.154,0.708,0.422
		c-0.273,0.02-0.537,0.086-0.805,0.152c-0.346,0.085-0.692,0.18-1.034,0.287l-0.179,0.028l0.061-0.028l0.14-0.32l-0.194-0.119
		l-0.608,0.154l0.04,0.373l0.303,0.41l0.389,0.289l0.386-0.221l0.36,0.512l0.531,0.217l0.002-0.461l0.491,0.476l0.378,0.388
		l0.157,0.256l0.039,0.106l0.025,0.104l0.021,0.101l0.026,0.146c-0.244-0.087-0.482-0.186-0.742-0.202
		c-0.222-0.01-0.44,0.046-0.66,0.078l0.006-0.38l-0.435,0.083l-0.512,0.007c-0.252-0.034-0.494-0.112-0.743-0.163l0.183,0.529
		l-0.041,0.539l-0.31,0.306l0.447-0.019c0.247-0.123,0.452-0.316,0.637-0.517c-0.031,0.292-0.07,0.585-0.159,0.863l0.051,0.003
		l0.302-0.415l0.047-0.209l0.018-0.242h0.24l-0.025,0.122l-0.032,0.106l0.004,0.165l0.052,0.166l0.277,0.254l0.002-0.362
		l0.104-0.283l0.26-0.178l-0.012,0.107l-0.063,0.249l-0.042,0.224l-0.029,0.044l0.207-0.039l0.309-0.379l0.047-0.039l0.225,0.214
		l0.002,0.559c-0.299,0.112-0.588,0.25-0.855,0.423l-0.646,0.448c-0.352,0.25-0.645,0.58-0.809,0.975
		c-0.159,0.394-0.179,0.835-0.047,1.239l0.01,0.051l0.041,0.093l0.036,0.109l0.268,0.422l0.515,0.586
		c0.303,0.251,0.647,0.45,0.968,0.679l-0.01-0.453l-0.041-0.63c-0.002-0.239-0.031-0.479-0.031-0.713l-0.015-0.366l0.116,0.626
		l0.025,0.478l0.009,0.374l0.066,0.281l0.116,0.462l0.084,0.297l0.108,0.507c0.035,0.265,0.058,0.541,0,0.809l-0.369,0.503
		c-0.219,0.087-0.467,0.006-0.696,0.049l-0.419,0.112l-0.23,0.395l-0.037,0.157l-0.052,0.206l-0.051,0.019l0.45-0.041l0.529-0.439
		l-0.179,0.308l-0.04,0.071l-0.045,0.114l0.427-0.059c0.25-0.104,0.411-0.322,0.618-0.487v0.06l-0.019,0.004l-0.305,0.478
		c0.655,0.006,1.306,0,1.963,0.001l0.285-0.204l-0.13-0.595l-0.066-0.176l-0.008-0.183l0.613-0.368l0.328-0.355l0.056-0.236
		l-0.384,0.055c-0.328,0.06-0.637,0.192-0.946,0.32l0.089-0.192l0.155-0.38l0.052-0.176l0.119-0.339
		c0.24-0.317,0.518-0.606,0.752-0.931c0.264-0.35,0.476-0.734,0.66-1.127l0.006-0.065l0.034,0.002l-0.014-0.048l0.033-0.004
		l-0.008-0.078l0.027,0.007l0.053-0.222l0.008,0.17l-0.027-0.005l-0.008,0.064l-0.025,0.116h-0.014l-0.104,0.287l-0.103,0.229
		l-0.035,0.081c-0.122,0.224-0.252,0.445-0.403,0.649c-0.226,0.326-0.503,0.612-0.776,0.9v0.148l-0.044,0.03l0.436-0.067
		c1.139-0.247,2.212-0.725,3.215-1.301c0.254-0.158,0.535-0.272,0.777-0.45c0.26-0.168,0.541-0.3,0.838-0.393
		c0.357-0.104,0.753-0.17,1.111-0.028l0.452,0.39l0.588,0.532l0.392,0.349c0.19,0.17,0.407,0.343,0.466,0.599l0.037,0.152
		c0.009,0.218,0.004,0.439-0.002,0.66l0.024,0.63l-0.046,0.454l-0.031,0.082l-0.472-0.009c-0.23-0.108-0.504-0.188-0.762-0.113
		c-0.283,0.089-0.464,0.352-0.557,0.619l-0.07,0.28l-0.018,0.238l0.313-0.045l0.295-0.208l-0.093,0.231l-0.043,0.013l0.624-0.06
		l0.326-0.273l-0.165,0.341l0.305,0.051c0.233,0.017,0.47,0.049,0.706,0.053l0.016-0.336l0.394,0.131
		c0.277,0.075,0.584,0.108,0.857-0.007l0.13-0.232l-0.018-0.121l-0.05-0.227l-0.045-0.159l-0.063-0.423l0.209-0.402l-0.384-0.438
		l0.634-0.087c0.239-0.075,0.425-0.267,0.537-0.484C41.866,20.565,41.524,20.572,41.253,20.387z M29.72,12.159l-0.124,0.108
		l-0.035,0.005l-0.187-0.106l-0.12-0.245l-0.02-0.166l0.037-0.186l0.124-0.11l0.037-0.003l0.185,0.104l0.12,0.245l0.02,0.165
		L29.72,12.159z M29.529,11.278l0.025-0.024l0.118,0.116l0.301,0.263c0.25,0.191,0.572,0.379,0.871,0.379h0.002l-0.291-0.536
		l0.002-0.03l0.006-0.031l0.025,0.017l0.378,0.206l0.702,0.207l0.149-0.02l-0.169-0.148l-0.201-0.295l0.002-0.013l0.002-0.019
		l0.021,0.003l0.214,0.024l0.466,0.029c0.227,0.002,0.447-0.029,0.535-0.108l0.025,0.028c-0.109,0.095-0.33,0.116-0.561,0.116
		c-0.285,0-0.584-0.041-0.664-0.051l0.187,0.254l0.194,0.165l0.023,0.021l-0.025,0.012l-0.198,0.039
		c-0.392-0.004-0.944-0.323-1.074-0.402l0.153,0.35l0.158,0.188l0.027,0.03l-0.042,0.003h-0.047
		C30.214,12.048,29.529,11.278,29.529,11.278z M30.729,15.384l-0.379-0.427l-0.168-0.307l-0.023,0.421l-0.039-0.001l0.029-0.498
		l0.037-0.008l0.197,0.373l0.328,0.4c-0.016-0.128-0.07-0.601-0.07-0.849l0.012-0.139l0.035,0.013l-0.01,0.126l0.037,0.546
		l0.035,0.332l0.006,0.029L30.729,15.384z M33.026,15.367H33.02h-0.006c-0.165-0.026-0.369-0.274-0.544-0.517l-0.17-0.257
		c0.114,0.381,0.142,0.899,0.142,0.899l0.002,0.025l-0.025-0.008c-0.401-0.099-0.765-0.698-0.875-0.898
		c0.008,0.387,0.244,0.686,0.364,0.806l0.07,0.066l0.021,0.021l-0.029,0.012l-0.064,0.013l-0.325-0.174l-0.318-0.371
		c-0.2-0.269-0.354-0.539-0.354-0.539l0.033-0.017l0.212,0.337l0.454,0.564l0.298,0.161h0.02c-0.097-0.095-0.419-0.433-0.421-0.904
		l0.002-0.052l0.004-0.071l0.031,0.061l0.077,0.136l0.196,0.3l0.588,0.508l-0.045-0.414c-0.033-0.229-0.091-0.501-0.186-0.669
		l-0.008-0.015l0.034-0.019l0.004,0.005l0.002,0.004c0.021,0.037,0.144,0.251,0.297,0.467c0.165,0.236,0.376,0.475,0.511,0.497
		l0.015-0.01l0.051-0.053l0.07-0.258l-0.004-0.064l0.042-0.005l0.002,0.068C33.187,15.272,33.03,15.362,33.026,15.367z"/>
</g>
</svg>
