<?xml version="1.0" encoding="iso-8859-1"?>
<!-- Generator: Adobe Illustrator 19.2.0, SVG Export Plug-In . SVG Version: 6.00 Build 0)  -->
<svg version="1.1" id="Layer_1" xmlns="http://www.w3.org/2000/svg" xmlns:xlink="http://www.w3.org/1999/xlink" x="0px" y="0px"
	 viewBox="0 0 49 32" style="enable-background:new 0 0 49 32;" xml:space="preserve">
<g>
	<polyline style="fill:#089E49;" points="49,0 0,0 0,32 	"/>
	<polyline style="fill:#CE2028;" points="0,32 49,32 49,0 	"/>
	<polygon style="fill:#FBD118;" points="40.168,0 37.223,0 0,24.307 0,26.229 	"/>
	<polygon style="fill:#FBD118;" points="49,5.77 8.832,32 11.779,32 49,7.693 	"/>
	<polygon style="fill:#010101;" points="49,0 40.168,0 0,26.229 0,32 8.832,32 49,5.77 49,0.002 	"/>
	<polygon style="fill:#FFFFFF;" points="12.725,18.432 15.289,20.424 18.018,18.65 16.875,21.652 19.439,23.646 16.17,23.514 
		15.025,26.516 14.146,23.428 10.879,23.293 13.603,21.52 	"/>
	<polygon style="fill:#FFFFFF;" points="31.387,6.295 33.951,8.287 36.678,6.514 35.537,9.52 38.1,11.512 34.83,11.375 
		33.688,14.383 32.809,11.295 29.539,11.16 32.266,9.385 	"/>
</g>
</svg>
